<svg width="22" height="33" viewBox="0 0 22 33" fill="none" xmlns="http://www.w3.org/2000/svg">
<path d="M19.1161 0.436602C13.4566 -0.0793924 7.82897 0.0546233 2.23417 0.838643C1.00527 1.01094 0.0999938 2.08031 0.133725 3.32107C0.280501 8.80009 0.723557 13.7576 1.56319 18.0214C1.65709 18.4973 1.74096 18.9759 1.81937 19.4545C2.4712 23.4439 3.85326 26.9912 5.94915 30.1063C6.51346 30.9441 7.26557 31.6451 8.16173 32.1101C9.8027 32.9616 11.2914 32.7519 12.6944 31.9432C13.7301 31.3461 14.5816 30.4773 15.1978 29.4535C17.0941 26.3001 18.5755 22.7702 19.6403 18.8647C21.1819 13.0666 21.8392 7.57665 21.253 2.51972C21.1245 1.4066 20.2329 0.538708 19.117 0.437514L19.1161 0.436602Z" fill="#F2F2F2"/>
<path d="M19.1283 0.305379C13.4852 -0.208792 7.79465 -0.0729526 2.21534 0.70742C0.918065 0.888839 -0.0345912 2.01382 0.000963176 3.32478C0.155944 9.12379 0.624529 13.94 1.43316 18.047C1.52068 18.4919 1.60456 18.9596 1.68934 19.4765C2.33935 23.4522 3.73598 27.0532 5.83915 30.1802C6.4299 31.059 7.21211 31.7664 8.10097 32.2277C8.82299 32.6024 9.54046 32.7902 10.2625 32.7902C11.0857 32.7902 11.9135 32.5459 12.7604 32.0582C13.7869 31.4665 14.6685 30.5895 15.3112 29.522C17.2047 26.3731 18.7044 22.7995 19.7683 18.8994C21.4156 12.702 21.9444 7.33876 21.3846 2.50519C21.2497 1.33828 20.3007 0.412955 19.1292 0.306292L19.1283 0.305379ZM19.5121 18.8292C18.4555 22.7056 16.965 26.2564 15.0842 29.3843C14.4652 30.4136 13.6165 31.2577 12.6282 31.8275C11.1231 32.6954 9.68178 32.7492 8.22222 31.9916C7.37256 31.5513 6.6241 30.873 6.05796 30.0316C3.97575 26.9365 2.59277 23.3701 1.94915 19.4327C1.86437 18.9131 1.77958 18.4427 1.69206 17.9951C0.886158 13.9027 0.419401 9.1019 0.26442 3.31748C0.233424 2.14145 1.08765 1.13225 2.25182 0.969064C5.60852 0.499564 9.00441 0.263447 12.4076 0.263447C14.6402 0.263447 16.8765 0.364637 19.1037 0.567935C20.1512 0.663658 20.9999 1.49053 21.1203 2.53437C21.6764 7.33421 21.1494 12.6646 19.5112 18.8292H19.5121Z" fill="black"/>
<path d="M14.9488 7.1426C14.8759 7.14625 14.8193 7.20824 14.823 7.28117C14.9433 9.70434 14.6507 12.1822 13.9524 14.6464C13.9323 14.7166 13.9733 14.7895 14.0435 14.8096C14.0554 14.8132 14.0681 14.8141 14.08 14.8141C14.1374 14.8141 14.1903 14.7759 14.2067 14.7184C14.9132 12.226 15.2095 9.71893 15.0874 7.26751C15.0837 7.19457 15.0245 7.13896 14.9488 7.1417V7.1426Z" fill="black"/>
<path d="M6.21273 3.99497C6.21911 3.92204 6.1644 3.85822 6.09238 3.85184C6.02127 3.84728 5.95565 3.90016 5.94927 3.97218C5.74141 6.4546 5.86538 8.95525 6.31938 11.4049C6.33123 11.4687 6.38686 11.5134 6.44885 11.5134C6.45706 11.5134 6.46526 11.5134 6.47347 11.5115C6.54549 11.4979 6.59289 11.4295 6.57921 11.3575C6.12977 8.93156 6.00578 6.4546 6.21273 3.99497Z" fill="black"/>
<path d="M9.15753 11.6862V10.5657H11.6955V20.3262H10.4535V11.6862H9.15753Z" fill="#1C1C1C" fill-opacity="0.5"/>
</svg>
