<svg width="22" height="33" viewBox="0 0 22 33" fill="none" xmlns="http://www.w3.org/2000/svg">
<path d="M19.1153 0.436589C13.456 -0.0793834 7.82864 0.0546265 2.23408 0.838612C1.00523 1.01091 0.0999952 2.08023 0.133725 3.32093C0.280494 8.79971 0.724465 13.7571 1.56315 18.0207C1.65704 18.4965 1.74089 18.9751 1.81929 19.4537C2.47109 23.4429 3.8531 26.99 5.9489 30.105C6.51318 30.9427 7.26526 31.6438 8.16138 32.1087C9.80228 32.9601 11.2909 32.7505 12.6939 31.9419C13.7286 31.3448 14.5809 30.476 15.1972 29.4523C17.0933 26.299 18.5747 22.7692 19.6395 18.8639C21.181 13.0661 21.8383 7.57633 21.2521 2.51962C21.1236 1.40654 20.232 0.53869 19.1162 0.437501L19.1153 0.436589Z" fill="#61B842" fill-opacity="0.5"/>
<path d="M19.1275 0.305366C13.4846 -0.208783 7.79433 -0.0729495 2.21527 0.70739C0.918048 0.8888 -0.0345897 2.01374 0.000963112 3.32463C0.155937 9.1243 0.624502 13.9394 1.4331 18.0462C1.52153 18.4948 1.6054 18.9615 1.68927 19.4756C2.33925 23.4512 3.73584 27.052 5.83984 30.1789C6.43056 31.0577 7.21273 31.7651 8.10155 32.2263C8.82355 32.601 9.54098 32.7888 10.2621 32.7888C11.0852 32.7888 11.9139 32.5445 12.7608 32.0568C13.7873 31.4651 14.6688 30.5882 15.3115 29.5207C17.2049 26.372 18.7045 22.7985 19.7683 18.8986C21.4156 12.7015 21.9444 7.33936 21.3846 2.50508C21.2497 1.33822 20.3007 0.412937 19.1293 0.306279L19.1275 0.305366ZM19.5113 18.8284C18.4547 22.7046 16.9642 26.2553 15.0836 29.383C14.4646 30.4122 13.6159 31.2564 12.6277 31.8261C11.1226 32.694 9.68136 32.7478 8.22187 31.9902C7.37224 31.549 6.62381 30.8717 6.0577 30.0303C3.97558 26.9354 2.59268 23.3691 1.94909 19.4319C1.86431 18.9159 1.78043 18.4455 1.69201 17.9943C0.886142 13.903 0.419405 9.10151 0.264431 3.31733C0.233436 2.14135 1.0876 1.1322 2.25173 0.969022C5.60828 0.499542 9.00404 0.263436 12.4071 0.263436C14.6396 0.263436 16.8749 0.364621 19.1029 0.567911C20.1503 0.66363 20.999 1.49047 21.1194 2.53426C21.6754 7.33481 21.1485 12.665 19.5104 18.8284H19.5113Z" fill="black"/>
<path d="M14.9487 7.1426C14.8758 7.14625 14.8193 7.20824 14.8229 7.28117C14.9433 9.70423 14.6506 12.182 13.9524 14.6461C13.9323 14.7163 13.9733 14.7892 14.0435 14.8093C14.0554 14.8129 14.0681 14.8138 14.08 14.8138C14.1374 14.8138 14.1903 14.7755 14.2067 14.7181C14.9132 12.2258 15.2095 9.71882 15.0873 7.2675C15.0837 7.19457 15.0244 7.13896 14.9487 7.1417V7.1426Z" fill="black"/>
<path d="M6.21273 3.99448C6.21911 3.92155 6.16441 3.85773 6.09239 3.85135C6.02037 3.84679 5.95564 3.89967 5.94926 3.97169C5.74141 6.454 5.8654 8.95455 6.31938 11.404C6.33123 11.4679 6.38683 11.5125 6.44882 11.5125C6.45703 11.5125 6.46523 11.5125 6.47344 11.5107C6.54545 11.497 6.59287 11.4287 6.5792 11.3567C6.12977 8.93085 6.00579 6.454 6.21273 3.99448Z" fill="black"/>
<path d="M6.21313 13.2153C7.05979 12.5353 7.72313 11.9786 8.20312 11.5453C8.68313 11.1053 9.08646 10.6486 9.41313 10.1753C9.74646 9.69531 9.91313 9.22531 9.91313 8.76531C9.91313 8.33198 9.80646 7.99198 9.59313 7.74531C9.38646 7.49198 9.04979 7.36531 8.58313 7.36531C8.12979 7.36531 7.77646 7.50865 7.52313 7.79531C7.27646 8.07531 7.14313 8.45198 7.12313 8.92531H6.24313C6.26979 8.17865 6.49646 7.60198 6.92313 7.19531C7.34979 6.78865 7.89979 6.58531 8.57313 6.58531C9.25979 6.58531 9.80313 6.77531 10.2031 7.15531C10.6098 7.53531 10.8131 8.05865 10.8131 8.72531C10.8131 9.27865 10.6465 9.81865 10.3131 10.3453C9.98646 10.8653 9.61313 11.3253 9.19313 11.7253C8.77313 12.1186 8.23646 12.5786 7.58313 13.1053H11.0231V13.8653H6.21313V13.2153Z" fill="#1C1C1C"/>
</svg>
