<svg width="22" height="32" viewBox="0 0 22 32" fill="none" xmlns="http://www.w3.org/2000/svg">
<path d="M11.9554 0.347723C11.5238 0.0642333 10.9704 0.0490043 10.5244 0.308799C7.86806 1.85741 5.50707 3.54227 3.61826 5.44461C3.37624 5.68832 3.12491 5.92443 2.86089 6.1436C1.95541 6.89506 1.13455 7.83354 0.411859 8.97597C0.168143 9.361 0.0733747 9.8222 0.147844 10.2724C1.20056 16.6023 2.7221 22.366 5.1398 27.0457C6.07997 28.8651 7.71065 30.2487 9.67562 30.8258C11.5534 31.3776 13.3458 31.0915 15.0467 29.9102C16.3626 28.9962 17.3671 27.7015 17.973 26.2189C19.9236 21.4495 21.0347 16.1301 21.4713 10.368C21.5086 9.87213 21.3639 9.37792 21.0626 8.98273C18.5569 5.69933 15.612 2.75188 11.9571 0.347723H11.9554Z" fill="#F2F2F2"/>
<path d="M12.0237 0.245416C11.5507 -0.0659997 10.9524 -0.0820782 10.4633 0.203104C7.56661 1.89135 5.29955 3.5779 3.53176 5.35839C3.26858 5.62326 3.02316 5.85004 2.78283 6.04975C1.85536 6.81983 1.02266 7.78285 0.308435 8.91004C0.0469473 9.32216 -0.0528947 9.81297 0.0266516 10.2919C1.20208 17.3606 2.83869 22.8586 5.03044 27.1016C5.99261 28.965 7.67324 30.3655 9.64074 30.9435C10.2619 31.1263 10.8737 31.2169 11.4754 31.2169C12.7405 31.2169 13.9599 30.814 15.1167 30.0101C16.4309 29.097 17.4583 27.8023 18.087 26.2647C19.9623 21.6781 21.1428 16.3324 21.5938 10.3766C21.6336 9.84851 21.4796 9.32639 21.1606 8.9075C18.4247 5.32284 15.4366 2.48879 12.0246 0.243721L12.0237 0.245416ZM21.3484 10.3596C20.8991 16.2892 19.7254 21.6104 17.8594 26.1733C17.2484 27.6669 16.2515 28.9244 14.9763 29.8096C13.3337 30.9503 11.5617 31.2532 9.71014 30.7083C7.80695 30.1489 6.18049 28.7932 5.24878 26.9891C3.06887 22.7697 1.43986 17.2954 0.269511 10.2522C0.20012 9.83328 0.287275 9.40254 0.516606 9.0412C1.21729 7.93517 2.03223 6.99246 2.94024 6.23846C3.18734 6.03367 3.43783 5.80181 3.70694 5.53101C5.45949 3.76576 7.71047 2.09191 10.5877 0.414663C10.7815 0.301267 10.9964 0.245416 11.2105 0.245416C11.4466 0.245416 11.6827 0.313965 11.8892 0.450209C15.2775 2.6792 18.2461 5.49463 20.9651 9.05729C21.2477 9.42794 21.3848 9.89083 21.3493 10.3588L21.3484 10.3596Z" fill="black"/>
<path d="M9.31532 5.13227C9.32378 5.06542 9.27639 5.00364 9.20954 4.99433C9.14269 4.98502 9.08092 5.03241 9.07161 5.10011C8.23384 11.5061 8.44878 17.4484 9.72745 23.2663C9.74014 23.3238 9.79091 23.3628 9.84676 23.3628C9.85522 23.3628 9.86454 23.3619 9.873 23.3602C9.939 23.3458 9.98132 23.2807 9.96609 23.2138C8.69335 17.4247 8.4801 11.5095 9.31365 5.13227H9.31532Z" fill="black"/>
<path d="M7.81781 13.0754C7.88081 12.2474 8.20031 11.5994 8.77631 11.1314C9.35231 10.6634 10.0993 10.4294 11.0173 10.4294C11.6293 10.4294 12.1558 10.5419 12.5968 10.7669C13.0468 10.9829 13.3843 11.2799 13.6093 11.6579C13.8433 12.0359 13.9603 12.4634 13.9603 12.9404C13.9603 13.4984 13.7983 13.9799 13.4743 14.3849C13.1593 14.7899 12.7453 15.0509 12.2323 15.1679V15.2354C12.8173 15.3794 13.2808 15.6629 13.6228 16.0859C13.9648 16.5089 14.1358 17.0624 14.1358 17.7464C14.1358 18.2594 14.0188 18.7229 13.7848 19.1369C13.5508 19.5419 13.1998 19.8614 12.7318 20.0954C12.2638 20.3294 11.7013 20.4464 11.0443 20.4464C10.0903 20.4464 9.30731 20.1989 8.69531 19.7039C8.08331 19.1999 7.74131 18.4889 7.66931 17.5709H8.85731C8.92031 18.1109 9.14081 18.5519 9.51881 18.8939C9.89681 19.2359 10.4008 19.4069 11.0308 19.4069C11.6608 19.4069 12.1378 19.2449 12.4618 18.9209C12.7948 18.5879 12.9613 18.1604 12.9613 17.6384C12.9613 16.9634 12.7363 16.4774 12.2863 16.1804C11.8363 15.8834 11.1568 15.7349 10.2478 15.7349H9.93731V14.7089H10.2613C11.0893 14.6999 11.7148 14.5649 12.1378 14.3039C12.5608 14.0339 12.7723 13.6199 12.7723 13.0619C12.7723 12.5849 12.6148 12.2024 12.2998 11.9144C11.9938 11.6264 11.5528 11.4824 10.9768 11.4824C10.4188 11.4824 9.96881 11.6264 9.62681 11.9144C9.28481 12.2024 9.08231 12.5894 9.01931 13.0754H7.81781Z" fill="#1C1C1C" fill-opacity="0.5"/>
</svg>
