<svg width="22" height="26" viewBox="0 0 22 26" fill="none" xmlns="http://www.w3.org/2000/svg">
<path d="M20.5269 3.76634C19.1672 2.92717 17.6793 2.40817 16.0632 2.20779C15.4252 2.12871 14.8186 1.893 14.2827 1.53752C11.0274 -0.621422 7.92565 -0.282835 4.9521 2.15634C4.27187 2.71374 3.51333 3.16518 2.70258 3.50683C2.42081 3.62584 2.15515 3.75098 1.90486 3.88304C0.54439 4.60243 -0.153498 6.15101 0.204279 7.64815C1.21081 11.8585 2.37932 15.6958 3.84729 18.8452C4.86534 21.0287 6.54752 22.8437 8.67729 23.9692C11.0481 25.2222 13.3353 25.3051 15.5365 24.2057C17.7023 23.1239 19.2578 21.117 19.8352 18.7661C20.7849 14.8996 21.2478 10.3975 21.4866 5.60283C21.5235 4.86194 21.1573 4.15636 20.5262 3.76711L20.5269 3.76634Z" fill="#61B842" fill-opacity="0.5"/>
<path d="M20.5846 3.67188C19.2195 2.82888 17.7024 2.29912 16.0756 2.0972C15.4729 2.02273 14.874 1.79701 14.3435 1.4446C11.1519 -0.672114 7.96799 -0.461746 4.88082 2.06956C4.21901 2.61237 3.47198 3.06074 2.65892 3.40393C2.37255 3.52447 2.10076 3.65268 1.85277 3.78397C0.448537 4.5264 -0.273956 6.12565 0.0961055 7.67345C1.21397 12.3514 2.40861 16.0213 3.74605 18.892C4.78253 21.1147 6.5146 22.9527 8.62441 24.0675C9.9035 24.7431 11.1665 25.0817 12.4041 25.0817C13.4866 25.0817 14.5492 24.8229 15.5857 24.3055C17.7608 23.2183 19.3493 21.2091 19.9427 18.7929C20.7965 15.3173 21.3224 11.1276 21.5973 5.60894C21.6365 4.82429 21.2479 4.08264 20.5838 3.67265L20.5846 3.67188ZM21.3754 5.59666C21.1005 11.1007 20.5769 15.2766 19.727 18.7392C19.1489 21.0924 17.6034 23.0479 15.4867 24.1059C13.3339 25.1815 11.0598 25.1024 8.72885 23.8709C6.66127 22.7784 4.96375 20.9772 3.948 18.7983C2.61593 15.9415 1.42743 12.2862 0.312638 7.62278C-0.0336223 6.17401 0.642788 4.67688 1.95643 3.98206C2.19904 3.85384 2.46465 3.72869 2.74488 3.61046C3.5779 3.25959 4.34339 2.79894 5.02133 2.24308C6.67892 0.884141 8.32498 0.205436 9.98872 0.205436C11.3814 0.205436 12.7865 0.681454 14.2191 1.63117C14.7788 2.002 15.4107 2.24001 16.0471 2.31909C17.6418 2.51717 19.1289 3.03617 20.4664 3.86229C21.0614 4.23004 21.4092 4.89492 21.3739 5.59819L21.3754 5.59666Z" fill="black"/>
<path d="M14.9241 2.43359C14.8627 2.4359 14.8151 2.48811 14.8174 2.54953C14.9118 4.93112 14.6592 7.28508 14.068 9.54691C14.0527 9.60603 14.088 9.66745 14.1479 9.6828C14.1571 9.68511 14.1671 9.68664 14.1763 9.68664C14.2254 9.68664 14.2707 9.65363 14.2838 9.60372C14.8811 7.32117 15.136 4.94494 15.0408 2.54108C15.0385 2.47966 14.9894 2.43283 14.9249 2.43436L14.9241 2.43359Z" fill="black"/>
<path d="M4.41026 4.71582C4.40796 4.6544 4.35573 4.60526 4.29431 4.6091C4.23289 4.6114 4.18528 4.66361 4.18758 4.72503C4.26205 6.52466 4.6022 8.34964 5.19722 10.1493C5.21257 10.1961 5.25633 10.2253 5.30316 10.2253C5.31468 10.2253 5.32619 10.2237 5.33847 10.2199C5.39682 10.2007 5.4283 10.1377 5.4091 10.0794C4.82023 8.29973 4.48397 6.49472 4.41026 4.71582Z" fill="black"/>
<path d="M6.20664 11.3822V10.6922L9.71664 5.83219H10.8066V10.5922H11.8066V11.3822H10.8066V12.9922H9.90664V11.3822H6.20664ZM9.94664 6.78219L7.25664 10.5922H9.94664V6.78219Z" fill="#1C1C1C"/>
</svg>
