<svg width="22" height="29" viewBox="0 0 22 29" fill="none" xmlns="http://www.w3.org/2000/svg">
<path d="M20.3373 5.74047C19.4206 5.19265 18.4763 4.7599 17.487 4.51791C16.132 4.18685 14.8835 3.50109 13.8942 2.51815C13.1793 1.80874 12.3154 1.17499 11.3451 0.579865C10.3006 -0.0601849 8.98351 -0.0428452 7.95171 0.617699C5.75725 2.02234 3.48317 3.95274 1.12397 6.44279C0.349135 7.26098 -0.00873026 8.39053 0.153647 9.50589C0.876462 14.4639 1.96816 19.3754 3.45163 24.2397C3.76535 25.2691 4.48501 26.1299 5.44509 26.6154C8.2591 28.0374 11.0653 28.426 13.8635 27.7639C15.4959 27.3776 16.862 26.2583 17.554 24.7307C19.7248 19.9382 21.012 14.3205 21.4787 7.93651C21.5433 7.04895 21.1011 6.19843 20.3373 5.74204V5.74047Z" fill="#F2F2F2"/>
<path d="M20.3959 5.64261C19.383 5.03803 18.4403 4.63367 17.5149 4.40745C16.1646 4.07717 14.9405 3.39614 13.9749 2.43764C13.3041 1.77158 12.4631 1.13231 11.4045 0.482801C10.3332 -0.17459 8.95305 -0.159615 7.88971 0.521424C5.67634 1.93789 3.37231 3.90376 1.04069 6.36385C0.235902 7.21279 -0.12826 8.36362 0.0404235 9.52154C0.767968 14.5095 1.87861 19.4723 3.34237 24.2719C3.66476 25.3289 4.4128 26.2204 5.39337 26.7162C7.33244 27.696 9.2833 28.1878 11.2208 28.1878C12.1139 28.1878 13.0046 28.083 13.8898 27.8741C15.549 27.4816 16.9576 26.3236 17.6583 24.7771C19.7976 20.054 21.1211 14.3905 21.5933 7.94428C21.6618 7.00706 21.203 6.12501 20.3959 5.6434V5.64261ZM21.3654 7.92694C20.8957 14.3471 19.5785 19.9838 17.4503 24.6825C16.7787 26.1652 15.4276 27.2751 13.8378 27.6518C11.0876 28.3029 8.28146 27.919 5.4974 26.5128C4.57122 26.0446 3.86574 25.2043 3.56148 24.2056C2.10087 19.4171 0.992607 14.4654 0.267427 9.48922C0.108991 8.40066 0.451101 7.3192 1.20781 6.5215C3.52681 4.07481 5.81665 2.12077 8.01426 0.714548C8.51952 0.39137 9.10122 0.22899 9.68215 0.22899C10.2631 0.22899 10.7975 0.378752 11.2862 0.678283C12.3291 1.31833 13.1567 1.94656 13.8149 2.60001C14.8097 3.58767 16.0708 4.28999 17.4613 4.62973C18.3646 4.85043 19.2869 5.24613 20.28 5.83967C21.0123 6.27714 21.4285 7.07722 21.3662 7.92773L21.3654 7.92694Z" fill="black"/>
<path d="M15.4381 4.55176L14.0059 9.65009C14.7507 7.95065 15.2276 6.2512 15.4381 4.55176Z" fill="#E9E0D6"/>
<path d="M15.4515 4.4384C15.3892 4.43052 15.3317 4.47545 15.3238 4.53772C15.1157 6.21824 14.6372 7.92241 13.9002 9.60372C13.875 9.66126 13.901 9.72905 13.9594 9.75428C13.9743 9.76058 13.9901 9.76374 14.0051 9.76374C14.0492 9.76374 14.091 9.73851 14.1099 9.69516C14.8556 7.99335 15.3404 6.2679 15.5508 4.5653C15.5587 4.50303 15.5138 4.44549 15.4515 4.43761V4.4384Z" fill="black"/>
<path d="M13.4941 10.3558H8.75559V13.4338C8.96259 13.1458 9.26859 12.9118 9.67359 12.7318C10.0786 12.5428 10.5151 12.4483 10.9831 12.4483C11.7301 12.4483 12.3376 12.6058 12.8056 12.9208C13.2736 13.2268 13.6066 13.6273 13.8046 14.1223C14.0116 14.6083 14.1151 15.1258 14.1151 15.6748C14.1151 16.3228 13.9936 16.9033 13.7506 17.4163C13.5076 17.9293 13.1341 18.3343 12.6301 18.6313C12.1351 18.9283 11.5186 19.0768 10.7806 19.0768C9.83559 19.0768 9.07059 18.8338 8.48559 18.3478C7.90059 17.8618 7.54509 17.2138 7.41909 16.4038H8.62059C8.73759 16.9168 8.98509 17.3173 9.36309 17.6053C9.74109 17.8933 10.2181 18.0373 10.7941 18.0373C11.5051 18.0373 12.0406 17.8258 12.4006 17.4028C12.7606 16.9708 12.9406 16.4038 12.9406 15.7018C12.9406 14.9998 12.7606 14.4598 12.4006 14.0818C12.0406 13.6948 11.5096 13.5013 10.8076 13.5013C10.3306 13.5013 9.91209 13.6183 9.55209 13.8523C9.20109 14.0773 8.94459 14.3878 8.78259 14.7838H7.62159V9.2758H13.4941V10.3558Z" fill="#1C1C1C" fill-opacity="0.5"/>
</svg>
