<svg width="21" height="17" viewBox="0 0 21 17" fill="none" xmlns="http://www.w3.org/2000/svg">
<path d="M19.7345 1.44381C18.993 0.814152 18.0506 0.668448 16.8459 1.15344C16.1527 1.43237 15.3706 1.37252 14.717 1.01138C12.9769 0.0507566 10.9713 0.218318 8.77584 1.19195C8.10872 1.48805 7.33697 1.44486 6.71564 1.06186C4.9656 -0.0168945 3.33473 -0.250024 1.84852 0.542516C0.589723 1.21433 -0.093013 2.61936 0.109415 4.03167C0.41696 6.17565 1.09136 8.16558 2.1342 10.001C2.20185 10.1201 2.2643 10.2419 2.31738 10.3684C2.90801 11.7827 3.33005 13.3392 3.6428 14.9873C3.76665 15.6403 4.27297 16.1539 4.92241 16.2945C8.20913 17.0037 11.7108 17.1156 15.5486 16.2924C16.2423 16.1435 16.8329 15.6898 17.1498 15.0554C18.8931 11.5684 20.0967 7.91528 20.6936 4.07591C20.8466 3.09239 20.4927 2.08805 19.734 1.44381H19.7345Z" fill="#61B842" fill-opacity="0.5"/>
<path d="M19.7844 1.38675C18.9913 0.71286 17.9932 0.611388 16.8187 1.08389C16.1521 1.35241 15.3996 1.30193 14.7544 0.945471C13.0735 0.0176318 11.1086 0.075396 8.74606 1.12292C8.09558 1.41173 7.35145 1.3649 6.75613 0.99751C4.93376 -0.125993 3.27113 -0.301363 1.81406 0.476087C0.541729 1.15518 -0.17275 2.58832 0.0359228 4.04226C0.343988 6.18727 1.02829 8.20479 2.06958 10.0381C2.14347 10.1677 2.20175 10.2853 2.24858 10.3972C2.80019 11.7189 3.23262 13.2249 3.56931 15.0015C3.69888 15.6842 4.22394 16.2207 4.9072 16.368C6.69159 16.7531 8.45413 16.9456 10.2203 16.9456C11.9865 16.9456 13.7636 16.7526 15.5651 16.3659C16.2874 16.2108 16.89 15.7456 17.2184 15.0889C18.9908 11.543 20.1856 7.84156 20.7689 4.08753C20.9266 3.07175 20.5494 2.03671 19.7839 1.38675H19.7844ZM20.6201 4.06464C20.0389 7.80358 18.8487 11.49 17.0836 15.0218C16.7761 15.6369 16.2109 16.0735 15.5339 16.2187C11.9547 16.9862 8.48951 16.9873 4.93947 16.2207C4.31554 16.086 3.83628 15.5963 3.71815 14.9734C3.37938 13.1864 2.94434 11.6705 2.38806 10.3394C2.33914 10.2218 2.27773 10.099 2.20071 9.9642C1.16828 8.14755 0.490208 6.14772 0.184745 4.02144C-0.0150816 2.62994 0.668175 1.25874 1.88483 0.609828C2.4562 0.304885 3.06142 0.152932 3.69785 0.152932C4.62777 0.152932 5.62377 0.478169 6.6765 1.12708C7.31449 1.51997 8.11067 1.57045 8.80694 1.26186C11.1226 0.234628 13.0444 0.174789 14.681 1.07817C15.3664 1.45649 16.1656 1.50956 16.8749 1.22439C18.0094 0.768021 18.9289 0.858565 19.6866 1.50228C20.4125 2.11893 20.7705 3.10089 20.6206 4.06515L20.6201 4.06464Z" fill="black"/>
<path d="M15.9507 1.85831C15.9096 1.86611 15.8825 1.90514 15.8903 1.94625C16.1896 3.54382 16.1136 5.16377 15.665 6.76186C15.6536 6.80193 15.677 6.84356 15.7171 6.85501C15.7238 6.85709 15.7306 6.85761 15.7374 6.85761C15.7701 6.85761 15.8008 6.83575 15.8097 6.80245C16.2645 5.18198 16.3415 3.53862 16.0381 1.91815C16.0303 1.87704 15.9913 1.84998 15.9502 1.85779L15.9507 1.85831Z" fill="black"/>
<path d="M7.72973 2.14299C7.68914 2.13258 7.64856 2.15756 7.63815 2.19763C7.31552 3.47621 7.25774 4.77247 7.46641 6.05157C7.47266 6.08852 7.50441 6.11506 7.54084 6.11506C7.545 6.11506 7.54918 6.11506 7.55334 6.11401C7.59445 6.10725 7.62253 6.06875 7.61577 6.02764C7.41022 4.76935 7.46746 3.49338 7.78489 2.2351C7.7953 2.19451 7.77085 2.15392 7.73026 2.14351L7.72973 2.14299Z" fill="black"/>
<path d="M12.6207 5.45094C12.474 4.71094 12.0174 4.34094 11.2507 4.34094C10.6574 4.34094 10.214 4.57094 9.9207 5.03094C9.62737 5.48427 9.48404 6.23427 9.4907 7.28094C9.64404 6.93427 9.89737 6.66427 10.2507 6.47094C10.6107 6.27094 11.0107 6.17094 11.4507 6.17094C12.1374 6.17094 12.684 6.38427 13.0907 6.81094C13.504 7.2376 13.7107 7.8276 13.7107 8.58094C13.7107 9.03427 13.6207 9.44094 13.4407 9.80094C13.2674 10.1609 13.0007 10.4476 12.6407 10.6609C12.2874 10.8743 11.8574 10.9809 11.3507 10.9809C10.664 10.9809 10.1274 10.8276 9.7407 10.5209C9.35404 10.2143 9.08404 9.79094 8.9307 9.25094C8.77737 8.71094 8.7007 8.04427 8.7007 7.25094C8.7007 4.80427 9.55404 3.58094 11.2607 3.58094C11.914 3.58094 12.4274 3.7576 12.8007 4.11094C13.174 4.46427 13.394 4.91094 13.4607 5.45094H12.6207ZM11.2607 6.94094C10.974 6.94094 10.704 7.00094 10.4507 7.12094C10.1974 7.23427 9.9907 7.41094 9.8307 7.65094C9.67737 7.88427 9.6007 8.17094 9.6007 8.51094C9.6007 9.0176 9.74737 9.43094 10.0407 9.75094C10.334 10.0643 10.754 10.2209 11.3007 10.2209C11.7674 10.2209 12.1374 10.0776 12.4107 9.79094C12.6907 9.4976 12.8307 9.10427 12.8307 8.61094C12.8307 8.09094 12.6974 7.68427 12.4307 7.39094C12.164 7.09094 11.774 6.94094 11.2607 6.94094Z" fill="#1C1C1C"/>
</svg>
