<svg width="22" height="17" viewBox="0 0 22 17" fill="none" xmlns="http://www.w3.org/2000/svg">
<path d="M20.5151 2.54921C17.2473 0.320854 14.4078 -0.54409 12.1908 0.575752C11.3876 0.981886 10.4478 1.0357 9.59874 0.737184C6.55982 -0.332245 3.87379 0.0965488 1.52535 1.95729C0.414007 2.83753 -0.112215 4.26834 0.147212 5.66234C0.736871 8.83551 1.53555 11.6705 2.53644 14.1776C2.91822 15.1331 3.75087 15.8383 4.75685 16.0547C9.02891 16.9723 13.5225 16.7809 18.2833 15.2549C19.086 14.9978 19.7226 14.3769 19.9923 13.5788C20.9071 10.8741 21.3438 7.81592 21.5148 4.56175C21.5568 3.76252 21.1761 3.00066 20.5151 2.54978V2.54921Z" fill="#F2F2F2"/>
<path d="M20.5625 2.48108C17.0336 0.0742994 14.2836 -0.573139 12.1549 0.502521C11.3789 0.894494 10.4573 0.951705 9.62689 0.659425C6.59703 -0.406606 3.85437 0.00802578 1.47535 1.89256C0.340211 2.79205 -0.199622 4.24213 0.0671691 5.67691C0.652296 8.82516 1.45777 11.6953 2.46036 14.2074C2.85346 15.1919 3.70539 15.9124 4.73971 16.1344C6.45147 16.5021 8.18872 16.6861 9.9441 16.6861C12.697 16.6861 15.4952 16.2347 18.3081 15.3329C19.1351 15.0678 19.7933 14.4221 20.0697 13.6047C20.9075 11.1266 21.4071 8.16979 21.5968 4.56556C21.6399 3.74536 21.2433 2.94669 20.5614 2.48165L20.5625 2.48108ZM21.4337 4.55593C21.2451 8.14487 20.7483 11.0875 19.9151 13.5509C19.6551 14.319 19.036 14.9262 18.2588 15.1755C13.6792 16.6431 9.14205 16.9116 4.77483 15.973C3.79377 15.7623 2.98602 15.0792 2.61331 14.1457C1.61411 11.6432 0.812037 8.78381 0.228609 5.64632C-0.0268536 4.27158 0.489738 2.88212 1.57729 2.02057C3.06815 0.839553 4.70514 0.247626 6.46902 0.247626C7.46425 0.247626 8.50026 0.436248 9.57252 0.813494C10.4448 1.1205 11.4135 1.0599 12.2291 0.648099C14.2994 -0.39754 16.9951 0.24593 20.4702 2.61589C21.1046 3.04865 21.4739 3.79181 21.4337 4.55537V4.55593Z" fill="black"/>
<path d="M11.2658 2.25241C11.2251 2.23202 11.1758 2.24844 11.1554 2.28923C10.6309 3.33883 10.5765 5.03021 10.994 7.31521C11.0013 7.35486 11.0359 7.38261 11.0744 7.38261C11.0795 7.38261 11.084 7.38261 11.0891 7.38148C11.1339 7.37355 11.1633 7.3305 11.1554 7.28575C10.7441 5.03644 10.794 3.38018 11.3021 2.36287C11.3225 2.32208 11.3061 2.2728 11.2653 2.25241H11.2658Z" fill="black"/>
<path d="M13.6179 6.51441L9.86494 15.3164H8.62294L12.4299 6.63591H7.21894V5.58291H13.6179V6.51441Z" fill="#1C1C1C" fill-opacity="0.5"/>
</svg>
