<svg width="22" height="17" viewBox="0 0 22 17" fill="none" xmlns="http://www.w3.org/2000/svg">
<path d="M20.517 2.54921C17.2493 0.320854 14.4097 -0.54409 12.1927 0.575752C11.3895 0.981886 10.4498 1.0357 9.60069 0.737184C6.56177 -0.332245 3.87572 0.0965488 1.52728 1.95729C0.415935 2.83753 -0.11026 4.26834 0.149167 5.66234C0.738826 8.83551 1.5375 11.6705 2.53782 14.1776C2.9196 15.1331 3.75224 15.8383 4.75823 16.0547C9.03028 16.9723 13.5238 16.7809 18.2847 15.2549C19.0868 14.9978 19.724 14.3769 19.9936 13.5788C20.9084 10.8741 21.3452 7.81592 21.5162 4.56175C21.5581 3.76252 21.1775 3.00066 20.5165 2.54978L20.517 2.54921Z" fill="#F2F2F2"/>
<path d="M20.5625 2.48108C17.0336 0.0742994 14.2836 -0.573139 12.1549 0.502521C11.3789 0.894494 10.4573 0.952272 9.62689 0.659425C6.59703 -0.406606 3.85437 0.00802578 1.47535 1.89256C0.340211 2.79205 -0.199622 4.24213 0.0671691 5.67691C0.652296 8.82459 1.45777 11.6947 2.46036 14.2074C2.85346 15.1919 3.70539 15.9124 4.73971 16.1344C6.45147 16.5021 8.18872 16.6861 9.9441 16.6861C12.697 16.6861 15.4946 16.2347 18.3081 15.3329C19.1351 15.0678 19.7933 14.4221 20.0697 13.6047C20.908 11.1266 21.4071 8.16979 21.5968 4.56556C21.6399 3.74479 21.2433 2.94669 20.5614 2.48165L20.5625 2.48108ZM21.4337 4.55593C21.245 8.14487 20.7483 11.0875 19.9151 13.5509C19.6551 14.319 19.036 14.9262 18.2588 15.1755C13.6792 16.6431 9.14261 16.9116 4.77483 15.973C3.79377 15.7623 2.98602 15.0792 2.61331 14.1457C1.61411 11.6432 0.812037 8.78324 0.228609 5.64632C-0.0268536 4.27158 0.489738 2.88212 1.57729 2.02057C3.06815 0.839553 4.70514 0.248193 6.46902 0.248193C7.46425 0.248193 8.50026 0.436815 9.57252 0.814061C10.4448 1.12107 11.4134 1.06046 12.2291 0.648666C14.2994 -0.396973 16.9951 0.246497 20.4702 2.61646C21.1046 3.04922 21.4739 3.79238 21.4337 4.55593Z" fill="black"/>
<path d="M11.2663 2.25241C11.2255 2.23202 11.1762 2.24844 11.1558 2.28923C10.6307 3.33883 10.5764 5.03021 10.9944 7.31521C11.0018 7.35486 11.0363 7.38261 11.0748 7.38261C11.0799 7.38261 11.0844 7.38261 11.0895 7.38148C11.1343 7.37355 11.1637 7.3305 11.1558 7.28575C10.7446 5.03644 10.7944 3.38018 11.3025 2.36287C11.3229 2.32208 11.3065 2.2728 11.2657 2.25241H11.2663Z" fill="black"/>
<path d="M8.2772 10.2404C7.7732 10.0424 7.3862 9.75441 7.1162 9.37641C6.8462 8.99841 6.7112 8.53941 6.7112 7.99941C6.7112 7.51341 6.8327 7.07691 7.0757 6.68991C7.3187 6.29391 7.6787 5.98341 8.1557 5.75841C8.6417 5.52441 9.2267 5.40741 9.9107 5.40741C10.5947 5.40741 11.1752 5.52441 11.6522 5.75841C12.1382 5.98341 12.5027 6.29391 12.7457 6.68991C12.9977 7.07691 13.1237 7.51341 13.1237 7.99941C13.1237 8.52141 12.9842 8.98041 12.7052 9.37641C12.4262 9.76341 12.0437 10.0514 11.5577 10.2404C12.1157 10.4114 12.5567 10.7129 12.8807 11.1449C13.2137 11.5679 13.3802 12.0809 13.3802 12.6839C13.3802 13.2689 13.2362 13.7819 12.9482 14.2229C12.6602 14.6549 12.2507 14.9924 11.7197 15.2354C11.1977 15.4694 10.5947 15.5864 9.9107 15.5864C9.2267 15.5864 8.6237 15.4694 8.1017 15.2354C7.5887 14.9924 7.1882 14.6549 6.9002 14.2229C6.6122 13.7819 6.4682 13.2689 6.4682 12.6839C6.4682 12.0809 6.6302 11.5634 6.9542 11.1314C7.2782 10.6994 7.7192 10.4024 8.2772 10.2404ZM11.9357 8.14791C11.9357 7.59891 11.7557 7.17591 11.3957 6.87891C11.0357 6.58191 10.5407 6.43341 9.9107 6.43341C9.2897 6.43341 8.7992 6.58191 8.4392 6.87891C8.0792 7.17591 7.8992 7.60341 7.8992 8.16141C7.8992 8.66541 8.0837 9.07041 8.4527 9.37641C8.8307 9.68241 9.3167 9.83541 9.9107 9.83541C10.5137 9.83541 10.9997 9.68241 11.3687 9.37641C11.7467 9.06141 11.9357 8.65191 11.9357 8.14791ZM9.9107 10.7804C9.2447 10.7804 8.7002 10.9379 8.2772 11.2529C7.8542 11.5589 7.6427 12.0224 7.6427 12.6434C7.6427 13.2194 7.8452 13.6829 8.2502 14.0339C8.6642 14.3849 9.2177 14.5604 9.9107 14.5604C10.6037 14.5604 11.1527 14.3849 11.5577 14.0339C11.9627 13.6829 12.1652 13.2194 12.1652 12.6434C12.1652 12.0404 11.9582 11.5814 11.5442 11.2664C11.1302 10.9424 10.5857 10.7804 9.9107 10.7804Z" fill="#1C1C1C" fill-opacity="0.5"/>
</svg>
