<svg width="22" height="33" viewBox="0 0 22 33" fill="none" xmlns="http://www.w3.org/2000/svg">
<path d="M19.3664 0.838966C13.7716 0.0558568 8.14396 -0.0781591 2.48442 0.436924C1.36856 0.538117 0.476971 1.40601 0.348428 2.51913C-0.236853 7.57607 0.420443 13.066 1.96113 18.8641C3.02594 22.7697 4.50738 26.2996 6.40361 29.453C7.01989 30.4768 7.87137 31.3456 8.907 31.9427C10.31 32.7513 11.7988 32.961 13.4398 32.1095C14.3368 31.6446 15.0889 30.9435 15.6523 30.1057C17.7482 26.9915 19.1294 23.4434 19.7821 19.454C19.8605 18.9754 19.9453 18.4967 20.0383 18.0209C20.8779 13.758 21.321 8.80042 21.4677 3.32048C21.5006 2.07972 20.5962 1.00944 19.3664 0.838053V0.838966Z" fill="#F2F2F2"/>
<path d="M19.3838 0.70768C13.8045 -0.073605 8.11484 -0.208533 2.4708 0.305639C1.29933 0.412302 0.350301 1.33764 0.215377 2.50455C-0.344377 7.33813 0.184379 12.7014 1.83173 18.8997C2.89472 22.7988 4.39438 26.3725 6.28879 29.5223C6.93059 30.5898 7.81216 31.4659 8.83868 32.0585C9.6856 32.5471 10.5143 32.7905 11.3375 32.7905C12.0586 32.7905 12.7761 32.6027 13.499 32.228C14.3879 31.7667 15.1701 31.0593 15.7609 30.1805C17.865 27.0535 19.2607 23.4525 19.9107 19.4768C19.9946 18.9626 20.0784 18.4958 20.1669 18.0473C20.9755 13.9403 21.4441 9.12497 21.5991 3.32504C21.6337 2.015 20.682 0.889099 19.3847 0.70768H19.3838ZM21.3347 3.31774C21.1797 9.10217 20.713 13.9038 19.908 17.9953C19.8195 18.4457 19.7347 18.9161 19.6509 19.433C19.0072 23.3713 17.6243 26.9368 15.5421 30.0319C14.9759 30.8733 14.2275 31.5516 13.3778 31.9919C11.9182 32.7495 10.4769 32.6957 8.9718 31.8278C7.98356 31.258 7.1348 30.4139 6.51579 29.3846C4.63414 26.2567 3.14452 22.7049 2.08791 18.8295C0.448763 12.6649 -0.0772733 7.33448 0.478834 2.53372C0.600084 1.48988 1.44793 0.663017 2.49633 0.567294C4.72441 0.363995 6.95977 0.262794 9.19241 0.262794C12.5947 0.262794 15.9915 0.497999 19.3482 0.968411C20.5124 1.1316 21.3666 2.1408 21.3356 3.31683L21.3347 3.31774Z" fill="black"/>
<path d="M6.77749 7.28165C6.78114 7.20872 6.72461 7.14672 6.65167 7.14308C6.57965 7.14217 6.51675 7.19504 6.5131 7.26889C6.39094 9.72032 6.68724 12.2274 7.39377 14.7198C7.41018 14.7782 7.46305 14.8155 7.52048 14.8155C7.53233 14.8155 7.5442 14.8137 7.55696 14.811C7.62716 14.7909 7.66818 14.718 7.64812 14.6478C6.9498 12.1836 6.65715 9.70482 6.77749 7.28256V7.28165Z" fill="black"/>
<path d="M15.5087 3.85195C15.4358 3.85833 15.382 3.92215 15.3884 3.99509C15.5944 6.45381 15.4713 8.93077 15.0219 11.3576C15.0082 11.4296 15.0556 11.498 15.1276 11.5117C15.1358 11.5135 15.144 11.5135 15.1522 11.5135C15.2142 11.5135 15.2699 11.4688 15.2817 11.405C15.7357 8.95537 15.8597 6.45472 15.6518 3.9723C15.6454 3.89936 15.5826 3.84648 15.5087 3.85195Z" fill="black"/>
<path d="M9.2005 11.6862V10.5657H11.7385V20.3262H10.4965V11.6862H9.2005Z" fill="#1C1C1C" fill-opacity="0.5"/>
</svg>
