<svg width="22" height="33" viewBox="0 0 22 33" fill="none" xmlns="http://www.w3.org/2000/svg">
<path d="M19.3664 0.838966C13.7716 0.0558568 8.14397 -0.0781591 2.48444 0.436924C1.36858 0.538117 0.476967 1.40601 0.348424 2.51913C-0.236856 7.57607 0.420462 13.066 1.96115 18.8641C3.02596 22.7697 4.50739 26.2996 6.40363 29.453C7.01991 30.4768 7.87139 31.3456 8.90702 31.9427C10.3101 32.7513 11.7988 32.961 13.4398 32.1095C14.3368 31.6446 15.0889 30.9435 15.6523 30.1057C17.7482 26.9915 19.1294 23.4434 19.7821 19.454C19.8605 18.9754 19.9453 18.4967 20.0383 18.0209C20.8779 13.758 21.321 8.80042 21.4678 3.32048C21.5006 2.07972 20.5962 1.00944 19.3673 0.838053L19.3664 0.838966Z" fill="#F2F2F2"/>
<path d="M19.3838 0.70768C13.8045 -0.073605 8.11484 -0.208533 2.4708 0.305639C1.29933 0.412302 0.350301 1.33764 0.215377 2.50455C-0.344377 7.33813 0.184379 12.7014 1.83173 18.8997C2.89472 22.7988 4.3944 26.3734 6.28881 29.5223C6.93061 30.5898 7.81218 31.4659 8.83961 32.0585C9.68653 32.5471 10.5152 32.7905 11.3375 32.7905C12.0586 32.7905 12.777 32.6027 13.499 32.228C14.3879 31.7667 15.1701 31.0593 15.7609 30.1805C17.865 27.0535 19.2607 23.4525 19.9107 19.4768C19.9946 18.9617 20.0785 18.494 20.1669 18.0473C20.9755 13.9403 21.4441 9.12497 21.5991 3.32504C21.6337 2.015 20.682 0.889099 19.3847 0.70768H19.3838ZM21.3347 3.31774C21.1797 9.10217 20.713 13.9038 19.9071 17.9953C19.8186 18.4439 19.7347 18.9143 19.65 19.433C19.0063 23.3713 17.6234 26.9368 15.5412 30.0319C14.975 30.8733 14.2266 31.5516 13.3769 31.9919C11.9173 32.7495 10.4769 32.6957 8.97088 31.8278C7.98265 31.258 7.13391 30.4139 6.5149 29.3846C4.63325 26.2567 3.1436 22.7049 2.087 18.8295C0.44785 12.6649 -0.0781636 7.33448 0.477944 2.53372C0.599194 1.48988 1.44702 0.663017 2.49542 0.567294C4.7235 0.363995 6.95886 0.262794 9.19149 0.262794C12.5938 0.262794 15.9906 0.497999 19.3473 0.968411C20.5115 1.1316 21.3657 2.1408 21.3347 3.31683V3.31774Z" fill="black"/>
<path d="M6.77747 7.28165C6.78112 7.20872 6.72461 7.14672 6.65167 7.14308C6.57965 7.14217 6.51675 7.19504 6.5131 7.26889C6.39094 9.72032 6.68722 12.2274 7.39375 14.7198C7.41016 14.7782 7.46305 14.8155 7.52048 14.8155C7.53233 14.8155 7.54418 14.8137 7.55694 14.811C7.62714 14.7909 7.66816 14.718 7.6481 14.6478C6.94978 12.1836 6.65713 9.70482 6.77747 7.28256V7.28165Z" fill="black"/>
<path d="M15.5087 3.85195C15.4358 3.85833 15.382 3.92215 15.3883 3.99509C15.5944 6.45381 15.4713 8.93077 15.0219 11.3576C15.0082 11.4296 15.0556 11.498 15.1276 11.5117C15.1358 11.5135 15.144 11.5135 15.1522 11.5135C15.2151 11.5135 15.2698 11.4688 15.2817 11.405C15.7357 8.95537 15.8606 6.45472 15.6518 3.9723C15.6454 3.89936 15.5816 3.84648 15.5087 3.85195Z" fill="black"/>
<path d="M7.86819 17.9906C9.01119 17.0726 9.90669 16.3211 10.5547 15.7361C11.2027 15.1421 11.7472 14.5256 12.1882 13.8866C12.6382 13.2386 12.8632 12.6041 12.8632 11.9831C12.8632 11.3981 12.7192 10.9391 12.4312 10.6061C12.1522 10.2641 11.6977 10.0931 11.0677 10.0931C10.4557 10.0931 9.97869 10.2866 9.63669 10.6736C9.30369 11.0516 9.12369 11.5601 9.09669 12.1991H7.90869C7.94469 11.1911 8.25069 10.4126 8.82669 9.86357C9.40269 9.31457 10.1452 9.04007 11.0542 9.04007C11.9812 9.04007 12.7147 9.29657 13.2547 9.80957C13.8037 10.3226 14.0782 11.0291 14.0782 11.9291C14.0782 12.6761 13.8532 13.4051 13.4032 14.1161C12.9622 14.8181 12.4582 15.4391 11.8912 15.9791C11.3242 16.5101 10.5997 17.1311 9.71769 17.8421H14.3617V18.8681H7.86819V17.9906Z" fill="#1C1C1C" fill-opacity="0.5"/>
</svg>
