<svg width="22" height="32" viewBox="0 0 22 32" fill="none" xmlns="http://www.w3.org/2000/svg">
<path d="M18.7384 6.14353C18.4736 5.92351 18.2231 5.68826 17.981 5.44455C16.0923 3.54138 13.7313 1.85655 11.075 0.308797C10.629 0.0490052 10.0747 0.064234 9.644 0.34772C5.98915 2.7527 3.04344 5.69927 0.53776 8.98263C0.235657 9.37782 0.0909455 9.87201 0.129026 10.3679C0.565679 16.1299 1.67678 21.4492 3.62734 26.2186C4.23408 27.7012 5.23856 28.9959 6.5536 29.9098C8.25452 31.0912 10.0468 31.378 11.9246 30.8254C13.8895 30.2475 15.5202 28.8647 16.4604 27.0453C18.878 22.3657 20.3996 16.6021 21.4523 10.2723C21.5267 9.82208 21.432 9.36088 21.1882 8.97585C20.4656 7.83429 19.6447 6.89583 18.7393 6.14353H18.7384Z" fill="#F2F2F2"/>
<path d="M18.8163 6.04968C18.576 5.84997 18.3306 5.62403 18.0674 5.35831C16.2996 3.577 14.0326 1.89132 11.136 0.203101C10.6469 -0.0820773 10.0486 -0.065999 9.57554 0.245413C6.16355 2.49045 3.17552 5.32362 0.439669 8.90909C0.119795 9.32797 -0.0342284 9.85009 0.00639051 10.3781C0.45743 16.3339 1.63791 21.6795 3.51315 26.2661C4.1419 27.8037 5.16923 29.0984 6.48342 30.0115C7.64021 30.8145 8.85878 31.2182 10.1247 31.2182C10.7264 31.2182 11.3382 31.1268 11.9594 30.9449C13.9268 30.366 15.6074 28.9664 16.5696 27.103C18.7613 22.8608 20.3979 17.3621 21.5733 10.2935C21.6529 9.81455 21.553 9.32374 21.2915 8.91163C20.5773 7.78361 19.7446 6.82144 18.8172 6.05138L18.8163 6.04968ZM21.3296 10.2521C20.1584 17.2952 18.5295 22.7694 16.3504 26.9887C15.4187 28.7929 13.7923 30.1485 11.8891 30.7079C10.0376 31.252 8.26556 30.9499 6.62304 29.8092C5.34777 28.9232 4.35093 27.6657 3.73996 26.173C1.87402 21.6101 0.700288 16.2899 0.250941 10.3595C0.2154 9.89156 0.351645 9.42867 0.635132 9.05803C3.35406 5.49541 6.32263 2.68 9.71092 0.45104C10.1053 0.191248 10.6045 0.177715 11.0133 0.415505C13.8913 2.09273 16.1422 3.76656 17.8939 5.53179C18.163 5.80259 18.4135 6.0336 18.6606 6.23924C19.5686 6.99323 20.3836 7.93592 21.0842 9.04194C21.3127 9.40328 21.4007 9.83317 21.3313 10.2529L21.3296 10.2521Z" fill="black"/>
<path d="M12.39 4.99383C12.3231 5.00229 12.2757 5.06406 12.2842 5.13176C13.1177 11.5098 12.9045 17.4241 11.6318 23.2131C11.6174 23.2791 11.6588 23.3451 11.7248 23.3595C11.7333 23.3612 11.7426 23.362 11.7511 23.362C11.8078 23.362 11.8585 23.3231 11.8704 23.2656C13.149 17.4478 13.364 11.5055 12.5262 5.09961C12.5177 5.03275 12.456 4.98452 12.3883 4.99383H12.39Z" fill="black"/>
<path d="M5.14203 13.0754C5.20503 12.2474 5.52453 11.5994 6.10053 11.1314C6.67653 10.6634 7.42353 10.4294 8.34153 10.4294C8.95353 10.4294 9.48003 10.5419 9.92103 10.7669C10.371 10.9829 10.7085 11.2799 10.9335 11.6579C11.1675 12.0359 11.2845 12.4634 11.2845 12.9404C11.2845 13.4984 11.1225 13.9799 10.7985 14.3849C10.4835 14.7899 10.0695 15.0509 9.55653 15.1679V15.2354C10.1415 15.3794 10.605 15.6629 10.947 16.0859C11.289 16.5089 11.46 17.0624 11.46 17.7464C11.46 18.2594 11.343 18.7229 11.109 19.1369C10.875 19.5419 10.524 19.8614 10.056 20.0954C9.58803 20.3294 9.02553 20.4464 8.36853 20.4464C7.41453 20.4464 6.63153 20.1989 6.01953 19.7039C5.40753 19.1999 5.06553 18.4889 4.99353 17.5709H6.18153C6.24453 18.1109 6.46503 18.5519 6.84303 18.8939C7.22103 19.2359 7.72503 19.4069 8.35503 19.4069C8.98503 19.4069 9.46203 19.2449 9.78603 18.9209C10.119 18.5879 10.2855 18.1604 10.2855 17.6384C10.2855 16.9634 10.0605 16.4774 9.61053 16.1804C9.16053 15.8834 8.48103 15.7349 7.57203 15.7349H7.26153V14.7089H7.58553C8.41353 14.6999 9.03903 14.5649 9.46203 14.3039C9.88503 14.0339 10.0965 13.6199 10.0965 13.0619C10.0965 12.5849 9.93903 12.2024 9.62403 11.9144C9.31803 11.6264 8.87703 11.4824 8.30103 11.4824C7.74303 11.4824 7.29303 11.6264 6.95103 11.9144C6.60903 12.2024 6.40653 12.5894 6.34353 13.0754H5.14203Z" fill="#1C1C1C" fill-opacity="0.5"/>
</svg>
