<svg width="22" height="26" viewBox="0 0 22 26" fill="none" xmlns="http://www.w3.org/2000/svg">
<path d="M19.6964 3.88296C19.4469 3.75091 19.1805 3.62576 18.8987 3.50676C18.0887 3.1651 17.3294 2.71366 16.6492 2.15627C13.6756 -0.282149 10.5739 -0.620737 7.31856 1.53744C6.78266 1.89292 6.17612 2.12863 5.53811 2.20771C3.92197 2.40809 2.43405 2.9271 1.07434 3.76626C0.443239 4.15628 0.0770159 4.86109 0.113869 5.60198C0.35341 10.3967 0.816372 14.8988 1.76533 18.7653C2.34268 21.1162 3.89817 23.1231 6.06403 24.2049C8.26597 25.3051 10.5524 25.2214 12.9232 23.9684C15.053 22.8429 16.7352 21.0271 17.7532 18.8444C19.2212 15.695 20.3897 11.8577 21.3963 7.64731C21.754 6.15017 21.0561 4.60159 19.6956 3.88219L19.6964 3.88296Z" fill="#F2F2F2"/>
<path d="M19.748 3.78398C19.5 3.65269 19.229 3.52524 18.9419 3.40394C18.1288 3.06075 17.381 2.61237 16.72 2.06957C13.6328 -0.461747 10.4489 -0.672115 7.25729 1.44461C6.72677 1.79701 6.12714 2.02196 5.52521 2.0972C3.89833 2.29913 2.38123 2.82888 1.01615 3.67189C0.352032 4.08187 -0.0364522 4.8243 0.00270368 5.60818C0.27833 11.1269 0.804242 15.3165 1.65723 18.7922C2.25071 21.2091 3.83844 23.2184 6.01428 24.3047C7.05076 24.8222 8.11335 25.0809 9.19589 25.0809C10.4328 25.0809 11.6965 24.7424 12.9756 24.0667C15.0854 22.9519 16.8182 21.1139 17.8539 18.8912C19.1922 16.0213 20.386 12.3514 21.5039 7.6727C21.874 6.12489 21.1515 4.52564 19.7473 3.78321L19.748 3.78398ZM21.2881 7.62202C20.1734 12.2862 18.9841 15.9415 17.6528 18.7976C16.637 20.9765 14.9388 22.7784 12.8719 23.8702C10.541 25.1017 8.26767 25.1808 6.11409 24.1051C3.99737 23.0471 2.45187 21.0917 1.87374 18.7385C1.02383 15.2766 0.500216 11.1008 0.225357 5.5959C0.19004 4.89262 0.537833 4.22774 1.13362 3.85998C2.47106 3.03387 3.95821 2.51487 5.55285 2.31678C6.18933 2.2377 6.8212 1.9997 7.3809 1.62887C10.5257 -0.456372 13.5345 -0.256756 16.5795 2.24078C17.2574 2.79664 18.0236 3.25653 18.8559 3.60817C19.1369 3.7264 19.4018 3.85154 19.6444 3.97976C20.9588 4.67459 21.6352 6.17173 21.2881 7.62049V7.62202Z" fill="black"/>
<path d="M6.78506 2.54933C6.78736 2.48791 6.73976 2.43647 6.67834 2.4334C6.61768 2.42879 6.56548 2.4787 6.5624 2.54012C6.4672 4.94399 6.7221 7.32021 7.31942 9.60277C7.33247 9.65267 7.37777 9.68568 7.42691 9.68568C7.43612 9.68568 7.44533 9.68415 7.45531 9.68185C7.51443 9.6665 7.55052 9.60584 7.53516 9.54596C6.94322 7.28489 6.69139 4.93017 6.78583 2.54857L6.78506 2.54933Z" fill="black"/>
<path d="M17.306 4.6091C17.2445 4.60526 17.1923 4.6544 17.19 4.71582C17.1163 6.49472 16.78 8.29973 16.1912 10.0794C16.172 10.1378 16.2035 10.2007 16.2618 10.2199C16.2733 10.2238 16.2848 10.2253 16.2971 10.2253C16.3439 10.2253 16.387 10.1953 16.4031 10.1493C16.9989 8.34964 17.3382 6.52467 17.4127 4.72503C17.415 4.66361 17.3674 4.6114 17.306 4.6091Z" fill="black"/>
<path d="M7.14547 16.8661V15.9346L11.884 9.37355H13.3555V15.7996H14.7055V16.8661H13.3555V19.0396H12.1405V16.8661H7.14547ZM12.1945 10.6561L8.56297 15.7996H12.1945V10.6561Z" fill="#1C1C1C" fill-opacity="0.5"/>
</svg>
