<svg width="22" height="29" viewBox="0 0 22 29" fill="none" xmlns="http://www.w3.org/2000/svg">
<path d="M13.6477 0.617696C12.6159 -0.0428443 11.298 -0.0601838 10.2544 0.579862C9.28405 1.17498 8.41936 1.80873 7.70522 2.51814C6.7152 3.50107 5.46741 4.18683 4.11244 4.51789C3.1232 4.75988 2.1797 5.19262 1.26298 5.74044C0.498393 6.19683 0.0561852 7.04733 0.121609 7.93488C0.588243 14.3188 1.87543 19.9365 4.04623 24.729C4.7383 26.2566 6.10432 27.3759 7.73675 27.7621C10.535 28.4242 13.3411 28.0356 16.1551 26.6137C17.1159 26.1281 17.8348 25.2674 18.1485 24.2379C19.632 19.3745 20.7237 14.4623 21.4465 9.50426C21.6089 8.38891 21.2518 7.25936 20.4762 6.44117C18.117 3.95193 15.8429 2.02076 13.6485 0.616128L13.6477 0.617696Z" fill="#F2F2F2"/>
<path d="M13.7088 0.521421C12.6454 -0.159614 11.2652 -0.174589 10.194 0.482798C9.13542 1.13151 8.29517 1.77078 7.62438 2.43762C6.65879 3.39612 5.43466 4.07715 4.08442 4.40742C3.15824 4.63364 2.21552 5.038 1.20343 5.64258C0.396277 6.12419 -0.06248 7.00623 0.00688465 7.94344C0.478249 14.3904 1.80249 20.0539 3.94175 24.7762C4.64249 26.3227 6.05106 27.4806 7.7103 27.8732C8.59548 28.0828 9.4854 28.1869 10.3793 28.1869C12.3167 28.1869 14.2676 27.695 16.2067 26.7152C17.188 26.2194 17.9353 25.3287 18.2577 24.2709C19.7214 19.4714 20.832 14.5086 21.5596 9.5207C21.7283 8.36278 21.3641 7.21195 20.5593 6.36302C18.2277 3.90295 15.9237 1.93709 13.7103 0.520632L13.7088 0.521421ZM21.3318 9.48916C20.6058 14.4653 19.4976 19.417 18.0377 24.2055C17.7335 25.2034 17.028 26.0444 16.1018 26.5127C13.3186 27.9197 10.5125 28.3027 7.76153 27.6517C6.17088 27.2757 4.82063 26.1651 4.14906 24.6824C2.02083 19.9845 0.703684 14.3471 0.233896 7.92689C0.171626 7.07638 0.587816 6.27633 1.32009 5.83886C2.31326 5.2461 3.23471 4.8504 4.13881 4.62891C5.52926 4.28918 6.79043 3.58686 7.78518 2.59921C8.44336 1.94576 9.271 1.31675 10.3138 0.67749C10.8025 0.377961 11.3598 0.2282 11.9179 0.2282C12.476 0.2282 13.0805 0.390579 13.5858 0.713755C15.7834 2.11997 18.0732 4.07399 20.3922 6.52146C21.1481 7.31915 21.491 8.40061 21.3318 9.48916Z" fill="black"/>
<path d="M7.59432 9.65006L6.16211 4.55176C6.37178 6.25119 6.84944 7.95063 7.59432 9.65006Z" fill="#E9E0D6"/>
<path d="M6.27478 4.53772C6.2669 4.47545 6.21015 4.43052 6.14709 4.4384C6.08482 4.44628 6.03989 4.50303 6.04777 4.56609C6.25823 6.26868 6.743 7.99412 7.48867 9.69592C7.50758 9.73848 7.54936 9.76449 7.5935 9.76449C7.60848 9.76449 7.62425 9.76134 7.63922 9.75503C7.69676 9.72981 7.72356 9.66202 7.69834 9.60448C6.96134 7.92317 6.48288 6.21902 6.27478 4.5385V4.53772Z" fill="black"/>
<path d="M13.3886 11.7059H8.65012V14.7839C8.85712 14.4959 9.16312 14.2619 9.56812 14.0819C9.97313 13.8929 10.4096 13.7984 10.8776 13.7984C11.6246 13.7984 12.2321 13.9559 12.7001 14.2709C13.1681 14.5769 13.5011 14.9774 13.6991 15.4724C13.9061 15.9584 14.0096 16.4759 14.0096 17.0249C14.0096 17.6729 13.8881 18.2534 13.6451 18.7664C13.4021 19.2794 13.0286 19.6844 12.5246 19.9814C12.0296 20.2784 11.4131 20.4269 10.6751 20.4269C9.73012 20.4269 8.96512 20.1839 8.38012 19.6979C7.79512 19.2119 7.43962 18.5639 7.31363 17.7539H8.51512C8.63212 18.2669 8.87962 18.6674 9.25762 18.9554C9.63562 19.2434 10.1126 19.3874 10.6886 19.3874C11.3996 19.3874 11.9351 19.1759 12.2951 18.7529C12.6551 18.3209 12.8351 17.7539 12.8351 17.0519C12.8351 16.3499 12.6551 15.8099 12.2951 15.4319C11.9351 15.0449 11.4041 14.8514 10.7021 14.8514C10.2251 14.8514 9.80663 14.9684 9.44662 15.2024C9.09562 15.4274 8.83912 15.7379 8.67712 16.1339H7.51613V10.6259H13.3886V11.7059Z" fill="#1C1C1C" fill-opacity="0.5"/>
</svg>
