<svg width="21" height="17" viewBox="0 0 21 17" fill="none" xmlns="http://www.w3.org/2000/svg">
<path d="M18.9535 0.542707C17.4674 -0.250297 15.8366 -0.0166634 14.0867 1.06201C13.4654 1.44498 12.6937 1.48765 12.0267 1.1921C9.83132 0.218532 7.82591 0.0509828 6.08588 1.01154C5.43181 1.37266 4.64974 1.4325 3.95716 1.15359C2.75256 0.66863 1.81022 0.814324 1.06873 1.44394C0.310063 2.08813 -0.0437708 3.09239 0.10921 4.07584C0.706045 7.91494 1.9096 11.5672 3.65275 15.0546C3.96964 15.6889 4.56075 16.1426 5.25385 16.2914C9.09139 17.1146 12.5928 17.0027 15.8793 16.2935C16.5292 16.1535 17.035 15.6394 17.1588 14.9864C17.4715 13.338 17.8935 11.7821 18.4841 10.3678C18.5367 10.2414 18.5996 10.1196 18.6673 10.0005C19.7101 8.16575 20.3844 6.17543 20.6919 4.03161C20.8944 2.6194 20.2117 1.21447 18.953 0.542707H18.9535Z" fill="#F2F2F2"/>
<path d="M18.9896 0.476053C17.5326 -0.301341 15.8701 -0.125984 14.0479 0.997438C13.4526 1.36428 12.709 1.41111 12.0581 1.12284C9.69621 0.0753906 7.73088 0.0171102 6.05017 0.945404C5.40494 1.30184 4.65252 1.35231 3.98596 1.08382C2.81154 0.610825 1.81404 0.712809 1.02052 1.38665C0.255092 2.03708 -0.122677 3.07153 0.0355075 4.08724C0.619334 7.84152 1.81352 11.5427 3.58582 15.0878C3.91415 15.7445 4.51671 16.2097 5.23895 16.3648C7.0409 16.7514 8.81371 16.9444 10.5834 16.9444C12.3531 16.9444 14.1124 16.7519 15.8961 16.3668C16.5793 16.2196 17.1044 15.6831 17.2339 15.0004C17.5706 13.224 18.003 11.7181 18.5546 10.3964C18.6014 10.2845 18.6597 10.1669 18.7336 10.0374C19.7753 8.2042 20.4595 6.18735 20.7676 4.04197C20.9762 2.58761 20.2618 1.15458 18.9896 0.476053ZM20.6182 4.02064C20.3133 6.14676 19.6348 8.14645 18.6024 9.96297C18.5254 10.0983 18.4645 10.2211 18.4156 10.3381C17.8599 11.6697 17.4249 13.1849 17.0856 14.9718C16.9675 15.5946 16.4877 16.0843 15.8644 16.2191C12.3146 16.985 8.8491 16.9845 5.27069 16.217C4.59372 16.0718 4.02863 15.6352 3.72111 15.0202C1.9561 11.4886 0.76607 7.8025 0.184846 4.06383C0.0349869 3.09963 0.392984 2.11774 1.11886 1.50113C1.87649 0.857469 2.79593 0.766924 3.93028 1.22327C4.63951 1.50841 5.43876 1.45534 6.12405 1.07705C7.76053 0.173215 9.68164 0.23305 11.9977 1.26073C12.6939 1.56929 13.49 1.51934 14.128 1.12596C15.9013 0.032719 17.5133 -0.141072 18.9198 0.609264C20.1364 1.25813 20.8191 2.62924 20.6198 4.02064H20.6182Z" fill="black"/>
<path d="M4.91391 1.94572C4.92171 1.90461 4.89465 1.86507 4.85355 1.85779C4.81244 1.84998 4.77341 1.87703 4.76561 1.91814C4.46224 3.53849 4.53926 5.18175 4.99404 6.8021C5.0034 6.8354 5.03358 6.85725 5.06637 6.85725C5.07313 6.85725 5.0799 6.85621 5.08666 6.85465C5.12673 6.8432 5.15014 6.80157 5.13869 6.76151C4.69016 5.16405 4.61419 3.5437 4.91339 1.94624L4.91391 1.94572Z" fill="black"/>
<path d="M13.0727 2.14205C13.0321 2.15245 13.0076 2.19304 13.018 2.23363C13.3354 3.49182 13.3921 4.7677 13.1866 6.02589C13.1798 6.067 13.2079 6.10551 13.2491 6.11227C13.2532 6.11279 13.2574 6.11331 13.2615 6.11331C13.298 6.11331 13.3297 6.08729 13.336 6.04983C13.5446 4.77134 13.4869 3.47465 13.1642 2.19616C13.1538 2.1561 13.1132 2.13112 13.0727 2.14152V2.14205Z" fill="black"/>
<path d="M11.7502 7.50877C11.5522 6.50977 10.9357 6.01027 9.90066 6.01027C9.09966 6.01027 8.50116 6.32077 8.10516 6.94177C7.70916 7.55377 7.51566 8.56627 7.52466 9.97927C7.73166 9.51127 8.07366 9.14677 8.55066 8.88577C9.03666 8.61577 9.57666 8.48077 10.1707 8.48077C11.0977 8.48077 11.8357 8.76877 12.3847 9.34477C12.9427 9.92077 13.2217 10.7173 13.2217 11.7343C13.2217 12.3463 13.1002 12.8953 12.8572 13.3813C12.6232 13.8673 12.2632 14.2543 11.7772 14.5423C11.3002 14.8303 10.7197 14.9743 10.0357 14.9743C9.10866 14.9743 8.38416 14.7673 7.86216 14.3533C7.34016 13.9393 6.97566 13.3678 6.76866 12.6388C6.56166 11.9098 6.45816 11.0098 6.45816 9.93877C6.45816 6.63577 7.61016 4.98427 9.91416 4.98427C10.7962 4.98427 11.4892 5.22277 11.9932 5.69977C12.4972 6.17677 12.7942 6.77977 12.8842 7.50877H11.7502ZM9.91416 9.52027C9.52716 9.52027 9.16266 9.60127 8.82066 9.76327C8.47866 9.91627 8.19966 10.1548 7.98366 10.4788C7.77666 10.7938 7.67316 11.1808 7.67316 11.6398C7.67316 12.3238 7.87116 12.8818 8.26716 13.3138C8.66316 13.7368 9.23016 13.9483 9.96816 13.9483C10.5982 13.9483 11.0977 13.7548 11.4667 13.3678C11.8447 12.9718 12.0337 12.4408 12.0337 11.7748C12.0337 11.0728 11.8537 10.5238 11.4937 10.1278C11.1337 9.72277 10.6072 9.52027 9.91416 9.52027Z" fill="#1C1C1C" fill-opacity="0.5"/>
</svg>
