<svg width="22" height="17" viewBox="0 0 22 17" fill="none" xmlns="http://www.w3.org/2000/svg">
<path d="M20.0747 1.95642C17.7262 0.0962431 15.0402 -0.333117 12.0013 0.736313C11.1522 1.03539 10.2125 0.981015 9.40926 0.574881C7.19223 -0.544963 4.35269 0.319416 1.08493 2.54834C0.423897 2.99922 0.043251 3.76108 0.0851672 4.56032C0.256231 7.81449 0.692953 10.8727 1.60775 13.5774C1.87794 14.3755 2.51461 14.9963 3.31668 15.2535C8.07757 16.7795 12.5711 16.9715 16.8432 16.0533C17.8492 15.8369 18.6824 15.1317 19.0636 14.1761C20.0645 11.6691 20.8626 8.83408 21.4523 5.66091C21.7111 4.26748 21.1855 2.83609 20.0741 1.95585L20.0747 1.95642Z" fill="#F2F2F2"/>
<path d="M20.1258 1.89256C17.7468 0.00802579 15.0041 -0.406606 11.9742 0.659426C11.1438 0.951706 10.2222 0.894495 9.44622 0.502522C7.31756 -0.573139 4.56751 0.0742995 1.03862 2.48108C0.357199 2.94613 -0.0398726 3.74424 0.0031765 4.565C0.192366 8.16923 0.691962 11.126 1.53029 13.6042C1.80671 14.4215 2.46547 15.0673 3.2919 15.3324C6.10539 16.2341 8.90301 16.6856 11.6559 16.6856C13.4113 16.6856 15.1491 16.5021 16.8603 16.1339C17.8946 15.9118 18.7471 15.1913 19.1396 14.2069C20.1428 11.6942 20.9477 8.8246 21.5328 5.67635C21.7996 4.24157 21.2598 2.79149 20.1247 1.89199L20.1258 1.89256ZM21.372 5.64633C20.7885 8.78381 19.9865 11.6432 18.9873 14.1457C18.6146 15.0792 17.8068 15.7623 16.8258 15.973C12.458 16.9116 7.92138 16.6431 3.34175 15.1755C2.5646 14.9262 1.94548 14.319 1.68549 13.5509C0.852262 11.0875 0.355499 8.14487 0.166875 4.55594C0.126659 3.79238 0.495975 3.04922 1.13038 2.61646C4.60547 0.246497 7.30113 -0.39754 9.37145 0.648667C10.1871 1.06103 11.1557 1.12107 12.028 0.814061C15.0013 -0.232145 17.6913 0.173992 20.0233 2.02057C21.1108 2.88212 21.6274 4.27102 21.372 5.64633Z" fill="black"/>
<path d="M10.3346 2.25241C10.2939 2.2728 10.2774 2.32208 10.2978 2.36287C10.8065 3.38019 10.8558 5.03644 10.4445 7.28575C10.4366 7.3305 10.466 7.37299 10.5108 7.38148C10.5159 7.38262 10.521 7.38262 10.5255 7.38262C10.5646 7.38262 10.5992 7.35486 10.606 7.31521C11.0234 5.03021 10.969 3.33883 10.4445 2.28923C10.4241 2.24844 10.3749 2.23202 10.3341 2.25241H10.3346Z" fill="black"/>
<path d="M14.2293 6.51441L10.4763 15.3164H9.23427L13.0413 6.63591H7.83027V5.58291H14.2293V6.51441Z" fill="#1C1C1C" fill-opacity="0.5"/>
</svg>
