<svg width="22" height="17" viewBox="0 0 22 17" fill="none" xmlns="http://www.w3.org/2000/svg">
<path d="M20.0747 1.95642C17.7262 0.0962431 15.0402 -0.333117 12.0013 0.736313C11.1522 1.03539 10.2125 0.981015 9.40926 0.574881C7.19223 -0.544963 4.35269 0.319416 1.08493 2.54834C0.423896 2.99922 0.043251 3.76108 0.0851673 4.56032C0.256231 7.81449 0.692953 10.8727 1.60775 13.5774C1.87794 14.3755 2.51461 14.9963 3.31668 15.2535C8.07757 16.7795 12.5711 16.9715 16.8432 16.0533C17.8492 15.8369 18.6824 15.1317 19.0636 14.1761C20.0645 11.6691 20.8626 8.83408 21.4523 5.66091C21.7111 4.26748 21.1855 2.83609 20.0741 1.95585L20.0747 1.95642Z" fill="#F2F2F2"/>
<path d="M20.1258 1.89256C17.7468 0.00802579 15.0041 -0.406606 11.9742 0.659426C11.1438 0.951706 10.2222 0.894495 9.44622 0.502522C7.31756 -0.573139 4.56751 0.0742995 1.03862 2.48108C0.357199 2.94613 -0.0398726 3.74481 0.0031765 4.565C0.192932 8.16923 0.691962 11.126 1.53029 13.6042C1.80671 14.4215 2.46547 15.0673 3.2919 15.3324C6.10539 16.2341 8.90301 16.6856 11.6559 16.6856C13.4113 16.6856 15.1491 16.5021 16.8603 16.1339C17.8946 15.9118 18.7471 15.1913 19.1396 14.2069C20.1428 11.6947 20.9477 8.8246 21.5328 5.67635C21.7996 4.24157 21.2598 2.79149 20.1247 1.89199L20.1258 1.89256ZM21.3725 5.64633C20.7891 8.78381 19.987 11.6437 18.9878 14.1457C18.6151 15.0792 17.8074 15.7623 16.8263 15.973C12.4585 16.9116 7.92195 16.6431 3.34231 15.1755C2.56516 14.9262 1.94605 14.319 1.68606 13.5509C0.85283 11.0875 0.356066 8.14488 0.167443 4.55594C0.127226 3.79238 0.496542 3.04922 1.13095 2.61646C4.60603 0.246497 7.3017 -0.39754 9.37202 0.648667C10.1877 1.06103 11.1563 1.12107 12.0286 0.814061C15.0018 -0.232145 17.6918 0.173992 20.0238 2.02057C21.1114 2.88212 21.628 4.27102 21.3725 5.64633Z" fill="black"/>
<path d="M10.3346 2.25241C10.2939 2.2728 10.2774 2.32208 10.2978 2.36287C10.8065 3.38019 10.8558 5.03644 10.4445 7.28575C10.4366 7.3305 10.466 7.37299 10.5108 7.38149C10.5159 7.38262 10.521 7.38262 10.5255 7.38262C10.5646 7.38262 10.5992 7.35486 10.606 7.31521C11.0234 5.03021 10.969 3.33883 10.4445 2.28923C10.4241 2.24844 10.3749 2.23202 10.3341 2.25241H10.3346Z" fill="black"/>
<path d="M8.21861 10.2404C7.71461 10.0424 7.32761 9.75441 7.05761 9.37641C6.78761 8.99841 6.65261 8.53941 6.65261 7.99941C6.65261 7.51341 6.77411 7.07691 7.01711 6.68991C7.26011 6.29391 7.62011 5.98341 8.09711 5.75841C8.58311 5.52441 9.16811 5.40741 9.85211 5.40741C10.5361 5.40741 11.1166 5.52441 11.5936 5.75841C12.0796 5.98341 12.4441 6.29391 12.6871 6.68991C12.9391 7.07691 13.0651 7.51341 13.0651 7.99941C13.0651 8.52141 12.9256 8.98041 12.6466 9.37641C12.3676 9.76341 11.9851 10.0514 11.4991 10.2404C12.0571 10.4114 12.4981 10.7129 12.8221 11.1449C13.1551 11.5679 13.3216 12.0809 13.3216 12.6839C13.3216 13.2689 13.1776 13.7819 12.8896 14.2229C12.6016 14.6549 12.1921 14.9924 11.6611 15.2354C11.1391 15.4694 10.5361 15.5864 9.85211 15.5864C9.16811 15.5864 8.56511 15.4694 8.04311 15.2354C7.53011 14.9924 7.12961 14.6549 6.84161 14.2229C6.55361 13.7819 6.40961 13.2689 6.40961 12.6839C6.40961 12.0809 6.57161 11.5634 6.89561 11.1314C7.21961 10.6994 7.66061 10.4024 8.21861 10.2404ZM11.8771 8.14791C11.8771 7.59891 11.6971 7.17591 11.3371 6.87891C10.9771 6.58191 10.4821 6.43341 9.85211 6.43341C9.23111 6.43341 8.74061 6.58191 8.38061 6.87891C8.02061 7.17591 7.84061 7.60341 7.84061 8.16141C7.84061 8.66541 8.02511 9.07041 8.39411 9.37641C8.77211 9.68241 9.25811 9.83541 9.85211 9.83541C10.4551 9.83541 10.9411 9.68241 11.3101 9.37641C11.6881 9.06141 11.8771 8.65191 11.8771 8.14791ZM9.85211 10.7804C9.18611 10.7804 8.64161 10.9379 8.21861 11.2529C7.79561 11.5589 7.58411 12.0224 7.58411 12.6434C7.58411 13.2194 7.78661 13.6829 8.19161 14.0339C8.60561 14.3849 9.15911 14.5604 9.85211 14.5604C10.5451 14.5604 11.0941 14.3849 11.4991 14.0339C11.9041 13.6829 12.1066 13.2194 12.1066 12.6434C12.1066 12.0404 11.8996 11.5814 11.4856 11.2664C11.0716 10.9424 10.5271 10.7804 9.85211 10.7804Z" fill="#1C1C1C" fill-opacity="0.5"/>
</svg>
