<svg width="22" height="28" viewBox="0 0 22 28" fill="none" xmlns="http://www.w3.org/2000/svg">
<path d="M18.1119 2.64572C17.7016 2.39611 17.2913 2.14732 16.8899 1.88384C13.0006 -0.66692 8.51085 -0.372444 3.53006 2.24113C3.38975 2.31454 3.24619 2.38061 3.10099 2.44424C-0.103163 3.85462 -0.480014 11.9327 0.829217 19.0972C0.904263 19.5075 0.965429 19.9194 1.01927 20.333C1.27296 22.2915 1.71019 24.2028 2.32769 26.0675C2.56506 26.7853 3.15727 27.3319 3.89305 27.5024C4.63128 27.6737 5.28712 27.6402 5.8728 27.4281C6.39568 27.2389 6.95853 27.1899 7.50098 27.3139C9.70179 27.8164 11.8618 27.6941 13.977 26.8685C14.4542 26.6826 14.9714 26.632 15.4771 26.7127C15.5766 26.7291 15.677 26.7421 15.7757 26.7535C17.7057 26.9673 19.5198 25.7942 20.1789 23.9678C20.7956 22.2581 21.1839 20.1739 21.3935 17.7969C21.6741 11.2402 21.4555 4.68257 18.1119 2.64654V2.64572Z" fill="#F2F2F2"/>
<path d="M18.1734 2.54452L18.0861 2.49149C17.7125 2.26391 17.3259 2.02898 16.9547 1.78508C15.0296 0.522344 12.8957 -0.0755769 10.6149 0.00762658C8.41576 0.0875672 6.01346 0.80377 3.47494 2.13584C3.33055 2.2117 3.18047 2.27941 3.05322 2.33488C-0.232507 3.78115 -0.611017 11.8723 0.712897 19.1175C0.782234 19.4952 0.843418 19.8973 0.90215 20.3476C1.15421 22.298 1.59634 24.2345 2.21547 26.1042C2.46508 26.8587 3.09808 27.4387 3.86649 27.6173C4.18788 27.6916 4.49866 27.7291 4.79885 27.7291C5.19039 27.7291 5.56317 27.6655 5.91312 27.539C6.43028 27.3514 6.9703 27.3139 7.47442 27.4289C9.73233 27.9444 11.9348 27.7927 14.0198 26.9778C14.4709 26.8016 14.9676 26.7502 15.4579 26.8285C15.559 26.8448 15.6618 26.8587 15.7621 26.8701C17.7394 27.0896 19.6017 25.9116 20.2894 24.0069C20.8816 22.3641 21.2927 20.2783 21.5113 17.8009C21.6296 15.0275 21.7046 11.4644 21.2283 8.50662C20.7348 5.44604 19.7355 3.49565 18.1734 2.54452ZM21.2756 17.7854C21.0594 20.2375 20.6532 22.3037 20.0675 23.927C19.4174 25.7289 17.6579 26.8424 15.7891 26.6352C15.6928 26.6246 15.5941 26.6107 15.4962 26.5952C14.9643 26.5104 14.4244 26.5659 13.9341 26.7576C11.894 27.5545 9.73803 27.703 7.52743 27.198C6.97845 27.0732 6.39276 27.114 5.83318 27.3163C5.25891 27.5243 4.61531 27.548 3.92032 27.3865C3.23185 27.2266 2.66493 26.707 2.44061 26.0299C1.82637 24.175 1.38831 22.2531 1.13788 20.3174C1.07915 19.8631 1.01636 19.4569 0.947019 19.0751C0.275681 15.4035 0.0733773 11.5941 0.391508 8.6249C0.748794 5.2886 1.70238 3.18894 3.15028 2.55186C3.28161 2.49394 3.43577 2.42461 3.58668 2.34548C6.25001 0.948153 8.74041 0.249079 11.0407 0.249079C13.1314 0.249079 15.0647 0.826609 16.8266 1.98249C17.2011 2.22802 17.5893 2.46458 17.9654 2.69298L18.0527 2.746C21.3751 4.76899 21.5472 11.4864 21.278 17.7846L21.2756 17.7854Z" fill="black"/>
<path d="M15.2988 18.1973C15.2335 18.203 15.1854 18.2609 15.1919 18.3254C15.4187 20.8614 15.3828 23.5908 15.0826 26.6694C15.0761 26.7346 15.1242 26.7925 15.1887 26.7983C15.1927 26.7983 15.1968 26.7983 15.2001 26.7983C15.2604 26.7983 15.3118 26.7526 15.3175 26.6914C15.6194 23.5982 15.6553 20.8549 15.4269 18.3033C15.4211 18.2381 15.364 18.1908 15.2988 18.1957V18.1973Z" fill="black"/>
<path d="M6.54181 18.3294C6.54997 18.2649 6.50347 18.2054 6.43821 18.198C6.37377 18.1907 6.31421 18.2364 6.30687 18.3016C6.00016 20.8638 6.1323 23.7963 6.71228 27.2664C6.72207 27.3243 6.77182 27.3651 6.82892 27.3651C6.83545 27.3651 6.84197 27.3651 6.8485 27.3635C6.91294 27.3529 6.95619 27.2917 6.94559 27.2273C6.36969 23.7792 6.23755 20.8687 6.54181 18.3294Z" fill="black"/>
<path d="M7.9505 8.87367V7.75317H10.4885V17.5137H9.2465V8.87367H7.9505Z" fill="#1C1C1C" fill-opacity="0.5"/>
</svg>
