<svg width="22" height="29" viewBox="0 0 22 29" fill="none" xmlns="http://www.w3.org/2000/svg">
<path d="M18.7878 8.38074C18.1388 6.67179 17.2427 5.06468 16.1057 3.632C12.5444 -0.857289 8.95918 -0.932554 5.35358 2.8342C3.59771 4.66799 2.34212 6.91795 1.62932 9.35474C0.341862 13.7573 -0.152208 18.0491 0.27547 22.2116C0.325056 22.6925 0.361351 23.175 0.39854 23.6567C0.596883 26.2219 2.7273 27.5457 6.21602 27.9981C8.87506 28.4807 11.4234 28.4471 13.8168 27.6891C14.565 27.4527 15.3398 27.3155 16.1217 27.2517C18.0989 27.0905 19.6086 26.1927 20.5888 24.4581C21.2397 23.307 21.5239 21.9859 21.4601 20.6647C21.2547 16.4296 20.2922 12.3494 18.786 8.38074H18.7878Z" fill="#F2F2F2"/>
<path d="M18.9088 8.3355C18.243 6.5814 17.3336 4.97251 16.2073 3.55223C14.4089 1.28545 12.5521 0.0918464 10.6864 0.00507111C8.91019 -0.0772768 7.08171 0.843604 5.26209 2.74469C3.53632 4.54749 2.23736 6.82047 1.50774 9.31747C0.189286 13.8271 -0.267621 18.1694 0.149432 22.224C0.195476 22.6747 0.2309 23.1342 0.265433 23.5796L0.272523 23.6664C0.371695 24.9485 0.953445 25.9774 2.00095 26.7239C2.97584 27.419 4.38903 27.89 6.19537 28.1247C7.38543 28.3407 8.5144 28.4488 9.59378 28.4488C11.1035 28.4488 12.5158 28.2371 13.8582 27.8121C14.5541 27.5916 15.3201 27.4464 16.1347 27.38C18.189 27.2127 19.7261 26.251 20.7037 24.5217C21.3509 23.3751 21.6582 22.0398 21.5909 20.6585C21.3934 16.6004 20.516 12.5698 18.9088 8.3355ZM20.4805 24.3951C19.5481 26.0456 18.0792 26.9638 16.1143 27.1241C15.2802 27.1923 14.4948 27.3411 13.7811 27.5677C11.5205 28.2832 9.05364 28.3832 6.23521 27.8714C2.57914 27.3968 0.712588 26.0155 0.528412 23.6469L0.521322 23.5601C0.486789 23.1139 0.451386 22.6525 0.404456 22.1983C-0.00905449 18.1765 0.444301 13.8679 1.7539 9.39097C2.47289 6.93293 3.74973 4.69625 5.44804 2.92355C7.14282 1.15351 8.82962 0.257428 10.4668 0.257428C10.5359 0.257428 10.6059 0.259198 10.6749 0.261855C12.4627 0.345088 14.2566 1.50593 16.0063 3.71161C17.1158 5.11064 18.0119 6.69651 18.6689 8.42581C20.2671 12.6344 21.1384 16.6402 21.335 20.67C21.3996 22.0026 21.1039 23.2901 20.4805 24.3942V24.3951Z" fill="black"/>
<path d="M15.1349 16.98C15.0649 16.9906 15.0162 17.0552 15.0268 17.1261C15.5245 20.5192 15.5245 23.9601 15.0268 27.3532C15.0162 27.4231 15.0649 27.4886 15.1349 27.4993C15.1411 27.5002 15.1473 27.501 15.1535 27.501C15.2163 27.501 15.2712 27.455 15.2801 27.3912C15.7813 23.9734 15.7813 20.5077 15.2801 17.0898C15.2695 17.0198 15.2057 16.9711 15.134 16.9817L15.1349 16.98Z" fill="black"/>
<path d="M5.86437 18.0623C5.79531 18.0508 5.72802 18.0968 5.71562 18.1668C5.10908 21.6166 5.02761 24.8086 5.46769 27.9237C5.47654 27.9875 5.53144 28.0344 5.5943 28.0344C5.6005 28.0344 5.6067 28.0344 5.61201 28.0335C5.68196 28.0238 5.73068 27.9582 5.72094 27.8883C5.28529 24.8007 5.36585 21.6351 5.96797 18.212C5.98036 18.142 5.93344 18.0756 5.86349 18.0632L5.86437 18.0623Z" fill="black"/>
<path d="M6.93459 16.888C8.07759 15.97 8.97309 15.2185 9.62109 14.6335C10.2691 14.0395 10.8136 13.423 11.2546 12.784C11.7046 12.136 11.9296 11.5015 11.9296 10.8805C11.9296 10.2955 11.7856 9.83654 11.4976 9.50354C11.2186 9.16154 10.7641 8.99054 10.1341 8.99054C9.52209 8.99054 9.04509 9.18404 8.70309 9.57104C8.37009 9.94904 8.19009 10.4575 8.16309 11.0965H6.97509C7.01109 10.0885 7.31709 9.31004 7.89309 8.76104C8.46909 8.21204 9.21159 7.93754 10.1206 7.93754C11.0476 7.93754 11.7811 8.19404 12.3211 8.70704C12.8701 9.22004 13.1446 9.92654 13.1446 10.8265C13.1446 11.5735 12.9196 12.3025 12.4696 13.0135C12.0286 13.7155 11.5246 14.3365 10.9576 14.8765C10.3906 15.4075 9.66609 16.0285 8.78409 16.7395H13.4281V17.7655H6.93459V16.888Z" fill="#1C1C1C" fill-opacity="0.5"/>
</svg>
