<svg width="22" height="29" viewBox="0 0 22 29" fill="none" xmlns="http://www.w3.org/2000/svg">
<path d="M18.221 5.79065C17.6529 4.49084 16.797 3.33418 15.7127 2.41966C12.8938 0.0431476 9.99034 -0.540131 6.99323 0.844203C4.44767 2.0199 2.59199 4.30808 1.88764 7.02193C0.890891 10.8582 0.194151 14.4766 0.113436 17.6481C0.0829779 18.8367 0.383007 20.0109 0.984561 21.0366C2.70394 23.9659 5.00353 26.4628 7.68768 28.6718C7.942 28.8812 8.29001 28.9345 8.59687 28.8149C10.3406 28.1349 12.0044 27.1252 13.6194 25.9168C13.9705 25.6541 14.3444 25.4249 14.732 25.2193C17.2257 23.8966 19.2535 21.7234 20.8967 18.8474C21.4313 17.9123 21.6133 16.8166 21.4099 15.7582C20.7749 12.4542 19.6807 9.13041 18.221 5.78912V5.79065Z" fill="#F2F2F2"/>
<path d="M18.3214 5.7464C17.7457 4.42984 16.8685 3.25034 15.7834 2.33506C12.899 -0.0970408 9.92627 -0.632347 6.94668 0.743612C4.38817 1.9254 2.50509 4.20369 1.78018 6.99444C0.640276 11.3812 0.0760271 14.7659 0.00216551 17.6457C-0.0290544 18.8603 0.277824 20.0519 0.888515 21.0929C2.51347 23.8615 4.71408 26.369 7.61677 28.7577C7.80104 28.9093 8.031 28.9892 8.26324 28.9892C8.38888 28.9892 8.5153 28.9664 8.63561 28.9192C10.2606 28.2856 11.9114 27.333 13.6841 26.0066C14.0115 25.7614 14.3709 25.5367 14.7821 25.3182C17.2043 24.0336 19.293 21.8756 20.9911 18.9037C21.5385 17.9458 21.7251 16.8218 21.5172 15.739C20.9073 12.5653 19.8313 9.20343 18.3206 5.74716L18.3214 5.7464ZM20.7999 18.794C19.1224 21.7287 17.0634 23.8585 14.6793 25.1233C14.2575 25.3471 13.8889 25.5779 13.5531 25.8299C11.7964 27.1442 10.1623 28.0869 8.55641 28.7136C8.28609 28.8186 7.97999 28.7707 7.75764 28.5879C4.87552 26.216 2.69163 23.7283 1.07962 20.9817C0.489492 19.9766 0.194047 18.8252 0.223744 17.6518C0.296844 14.7895 0.859563 11.4208 1.9949 7.05078C2.70306 4.32476 4.54198 2.09901 7.04033 0.945398C8.08125 0.464917 9.12218 0.224295 10.1593 0.224295C12.0058 0.224295 13.8409 0.985754 15.6425 2.50487C16.7017 3.39806 17.5584 4.54939 18.1203 5.83549C19.6242 9.27729 20.6949 12.6231 21.3017 15.7809C21.4997 16.8119 21.3223 17.8825 20.8007 18.794H20.7999Z" fill="black"/>
<path d="M6.45082 9.34637C6.45538 9.28545 6.40895 9.23291 6.34803 9.22834C6.28864 9.22377 6.23457 9.27022 6.23 9.33114C5.93379 13.6166 6.25132 18.5897 7.20162 24.5352C7.21 24.5893 7.25721 24.6281 7.31051 24.6281C7.3166 24.6281 7.32193 24.6281 7.32802 24.6266C7.38817 24.6167 7.42929 24.5603 7.41939 24.5002C6.47213 18.5715 6.15461 13.6144 6.45005 9.34561L6.45082 9.34637Z" fill="black"/>
<path d="M7.40375 11.1257C7.46675 10.2977 7.78625 9.6497 8.36225 9.1817C8.93825 8.7137 9.68525 8.4797 10.6032 8.4797C11.2152 8.4797 11.7417 8.5922 12.1828 8.8172C12.6327 9.0332 12.9702 9.3302 13.1952 9.7082C13.4293 10.0862 13.5463 10.5137 13.5463 10.9907C13.5463 11.5487 13.3843 12.0302 13.0602 12.4352C12.7453 12.8402 12.3313 13.1012 11.8182 13.2182V13.2857C12.4032 13.4297 12.8667 13.7132 13.2087 14.1362C13.5507 14.5592 13.7217 15.1127 13.7217 15.7967C13.7217 16.3097 13.6047 16.7732 13.3707 17.1872C13.1367 17.5922 12.7857 17.9117 12.3177 18.1457C11.8497 18.3797 11.2872 18.4967 10.6303 18.4967C9.67625 18.4967 8.89325 18.2492 8.28125 17.7542C7.66925 17.2502 7.32725 16.5392 7.25525 15.6212H8.44325C8.50625 16.1612 8.72675 16.6022 9.10475 16.9442C9.48275 17.2862 9.98675 17.4572 10.6167 17.4572C11.2467 17.4572 11.7237 17.2952 12.0477 16.9712C12.3807 16.6382 12.5472 16.2107 12.5472 15.6887C12.5472 15.0137 12.3222 14.5277 11.8723 14.2307C11.4222 13.9337 10.7427 13.7852 9.83375 13.7852H9.52325V12.7592H9.84725C10.6752 12.7502 11.3007 12.6152 11.7237 12.3542C12.1467 12.0842 12.3582 11.6702 12.3582 11.1122C12.3582 10.6352 12.2007 10.2527 11.8857 9.9647C11.5797 9.6767 11.1387 9.5327 10.5627 9.5327C10.0047 9.5327 9.55475 9.6767 9.21275 9.9647C8.87075 10.2527 8.66825 10.6397 8.60525 11.1257H7.40375Z" fill="#1C1C1C" fill-opacity="0.5"/>
</svg>
