<svg width="22" height="29" viewBox="0 0 22 29" fill="none" xmlns="http://www.w3.org/2000/svg">
<path d="M16.409 1.30268C12.7604 -0.330814 8.97665 -0.290816 5.0553 1.45307C3.99857 1.92344 3.18985 2.82258 2.82427 3.92011C1.14278 8.96779 0.210815 13.9427 0.115621 18.8359C0.106021 19.3159 0.275607 19.7839 0.592387 20.1447C1.25474 20.8974 1.96912 21.4998 2.75627 21.891C3.26344 22.1429 3.68741 22.5389 3.9594 23.0357C4.94733 24.838 6.33043 26.4259 8.04792 27.8346C8.73828 28.4009 9.68942 28.5337 10.5126 28.1865C14.5667 26.4763 18.0881 24.0436 21.0215 20.8134C21.3095 20.4966 21.4758 20.0863 21.4806 19.6583C21.5406 14.5794 20.5447 9.36616 18.848 4.0249C18.4624 2.81138 17.5721 1.82425 16.4098 1.30348L16.409 1.30268Z" fill="#F2F2F2"/>
<path d="M16.4561 1.19694C12.7819 -0.447756 8.92936 -0.397359 5.00801 1.34733C3.92728 1.8281 3.09134 2.75284 2.71457 3.88316C1.00668 9.01083 0.0931606 14.0409 0.000366632 18.8334C-0.00923275 19.3462 0.169942 19.8389 0.50592 20.2205C1.22107 21.0333 1.94023 21.614 2.70578 21.994C3.20175 22.2404 3.60093 22.6196 3.85852 23.0907C4.82085 24.8458 6.20556 26.4721 7.97505 27.924C8.43262 28.3 8.99658 28.4944 9.56854 28.4944C9.90212 28.4944 10.2381 28.428 10.5581 28.2936C14.6746 26.5569 18.224 24.0667 21.1078 20.8917C21.4182 20.5501 21.5918 20.1125 21.5974 19.6597C21.6542 14.8825 20.791 9.75718 18.9591 3.98956C18.5656 2.75044 17.6536 1.7329 16.4577 1.19774L16.4561 1.19694ZM21.3638 19.6557C21.359 20.0517 21.207 20.4349 20.935 20.7341C18.0744 23.8843 14.5522 26.3553 10.4669 28.0784C9.67733 28.4112 8.779 28.2832 8.12144 27.7432C6.37516 26.3105 5.00962 24.7074 4.06089 22.9779C3.7801 22.466 3.34652 22.0532 2.80815 21.7852C2.0706 21.4188 1.37466 20.8565 0.679502 20.0661C0.381922 19.7277 0.222724 19.291 0.231524 18.8366C0.324318 14.0673 1.23306 9.06043 2.93455 3.95516C3.29053 2.88563 4.08089 2.01209 5.10242 1.55772C7.09029 0.673772 9.05898 0.231399 10.9949 0.231399C12.8171 0.231399 14.6098 0.623375 16.3617 1.40732C17.4976 1.91609 18.3632 2.88163 18.7367 4.05755C20.5606 9.80118 21.4206 14.9033 21.3638 19.6549V19.6557Z" fill="black"/>
<path d="M14.9278 19.2972C14.9134 19.2348 14.8518 19.1956 14.7894 19.21C14.727 19.2244 14.6878 19.286 14.7022 19.3492C15.1966 21.5235 15.5694 23.5145 15.8101 25.2664C15.8181 25.3248 15.8677 25.3664 15.9245 25.3664C15.9301 25.3664 15.9349 25.3664 15.9405 25.3656C16.0037 25.3568 16.0485 25.2984 16.0397 25.2352C15.7973 23.4761 15.4237 21.4787 14.9278 19.298V19.2972Z" fill="black"/>
<path d="M4.2914 16.1728C4.229 16.1576 4.16661 16.1952 4.15141 16.2576C3.63544 18.3527 3.38427 20.5661 3.44426 22.49C3.44586 22.5532 3.49788 22.602 3.56027 22.602C3.56187 22.602 3.56266 22.602 3.56426 22.602C3.62825 22.5996 3.67864 22.5468 3.67624 22.4828C3.61705 20.5797 3.86585 18.3887 4.37702 16.3128C4.39222 16.2504 4.35461 16.188 4.29222 16.1728H4.2914Z" fill="black"/>
<path d="M6.09273 15.3636V14.4321L10.8312 7.87111H12.3027V14.2971H13.6527V15.3636H12.3027V17.5371H11.0877V15.3636H6.09273ZM11.1417 9.15361L7.51023 14.2971H11.1417V9.15361Z" fill="#1C1C1C" fill-opacity="0.5"/>
</svg>
