<svg width="22" height="29" viewBox="0 0 22 29" fill="none" xmlns="http://www.w3.org/2000/svg">
<path d="M17.311 2.29721C12.8287 -0.704921 8.29038 -0.566259 3.7003 2.49518C2.79565 3.09828 2.15745 4.02549 1.90351 5.08216C0.818435 9.58954 0.203634 14.0234 0.121773 18.3729C0.110914 18.9367 0.23036 19.4956 0.471767 20.0051C1.45661 22.0867 3.01951 24.1533 5.04766 26.2074C5.17129 26.3327 5.30243 26.4496 5.44109 26.5574C6.41424 27.3192 7.53104 27.9006 8.78318 28.3107C9.24929 28.4636 9.75718 28.426 10.1991 28.2121C12.7109 26.9959 14.8735 25.4581 16.6269 23.5435C17.0796 23.049 17.6334 22.6556 18.249 22.39C20.0976 21.5931 21.2854 19.9884 21.47 17.1609C21.4767 17.0615 21.4783 16.9612 21.4767 16.8618C21.419 13.1179 20.6631 9.21949 19.4644 5.2225C19.1061 4.02883 18.3468 2.99053 17.311 2.29721Z" fill="#F2F2F2"/>
<path d="M17.3786 2.19696C15.14 0.697563 12.8412 -0.040858 10.5441 0.00174318C8.27617 0.0435091 5.95148 0.848755 3.63347 2.39493C2.70627 3.01307 2.0497 3.95781 1.78574 5.05458C0.681444 9.64215 0.080841 14.1228 0.000650422 18.3712C-0.0102087 18.9518 0.115096 19.5348 0.36235 20.0577C1.31211 22.0667 2.85996 24.1642 4.96162 26.2934C5.08691 26.4204 5.22308 26.5415 5.36675 26.6542C6.33656 27.4135 7.4734 28.01 8.74559 28.4276C8.94941 28.4944 9.15907 28.5279 9.36874 28.5279C9.67029 28.5279 9.97186 28.4594 10.2517 28.3232C12.8328 27.0736 15.0071 25.494 16.7162 23.6271C17.1547 23.1484 17.701 22.7592 18.2975 22.5027C20.3365 21.624 21.414 19.8798 21.592 17.17C21.5986 17.0715 21.6012 16.9704 21.5995 16.861C21.546 13.3526 20.8861 9.53439 19.5822 5.18907C19.2146 3.96533 18.4328 2.9028 17.3803 2.1978L17.3786 2.19696ZM21.3497 17.1533C21.1793 19.7629 20.1494 21.4402 18.2014 22.2797C17.5741 22.5503 16.9986 22.9588 16.5375 23.4633C14.8493 25.3069 12.6992 26.8689 10.1456 28.1044C9.72711 28.3065 9.25682 28.3399 8.81995 28.1962C7.57365 27.7878 6.46186 27.2047 5.51461 26.4621C5.37929 26.356 5.25062 26.2416 5.13284 26.1221C3.05039 24.013 1.51842 21.938 0.580356 19.9533C0.348973 19.4638 0.232045 18.9184 0.242069 18.3746C0.322259 14.1437 0.92035 9.68058 2.02046 5.10972C2.27022 4.07225 2.89 3.17929 3.76709 2.59457C6.10765 1.0342 8.43571 0.253175 10.7353 0.253175C13.035 0.253175 15.1099 0.967372 17.2433 2.3966C18.2498 3.0707 18.9975 4.08645 19.3483 5.2559C20.6455 9.5795 21.3021 13.376 21.3556 16.8618C21.3572 16.9646 21.3556 17.0598 21.3489 17.1517L21.3497 17.1533Z" fill="black"/>
<path d="M16.7259 16.9337C16.6875 16.8927 16.6324 16.8794 16.5814 16.8977C16.5188 16.9211 16.4861 16.9905 16.5095 17.0531C16.5179 17.0748 16.5313 17.0932 16.548 17.1066C16.6215 17.3196 16.7484 18.6009 16.7944 20.2816C16.8562 22.5495 16.7025 23.3222 16.6081 23.4249C16.5505 23.4341 16.5054 23.4842 16.5054 23.5444C16.5054 23.6112 16.5597 23.6655 16.6265 23.6655C16.7234 23.6655 16.8019 23.5995 16.8579 23.4692C17.101 22.9053 17.0567 20.8271 17.0266 19.96C17.0225 19.8456 16.9272 17.1458 16.7251 16.9328L16.7259 16.9337Z" fill="black"/>
<path d="M3.71522 20.0639C3.65006 20.0522 3.58656 20.0957 3.57487 20.1616C3.33346 21.5032 3.4362 23.1045 3.5732 24.7651C3.57821 24.8286 3.63166 24.8762 3.69348 24.8762C3.69682 24.8762 3.70017 24.8762 3.70351 24.8762C3.77034 24.8703 3.81963 24.8119 3.81461 24.7459C3.67929 23.102 3.57738 21.5182 3.81294 20.2059C3.82464 20.1399 3.78121 20.0773 3.71522 20.0656V20.0639Z" fill="black"/>
<path d="M13.4394 7.58871H8.70091V10.6667C8.90791 10.3787 9.21391 10.1447 9.61891 9.96471C10.0239 9.77571 10.4604 9.68122 10.9284 9.68122C11.6754 9.68122 12.2829 9.83871 12.7509 10.1537C13.2189 10.4597 13.5519 10.8602 13.7499 11.3552C13.9569 11.8412 14.0604 12.3587 14.0604 12.9077C14.0604 13.5557 13.9389 14.1362 13.6959 14.6492C13.4529 15.1622 13.0794 15.5672 12.5754 15.8642C12.0804 16.1612 11.4639 16.3097 10.7259 16.3097C9.78091 16.3097 9.01591 16.0667 8.43091 15.5807C7.84591 15.0947 7.49041 14.4467 7.36441 13.6367H8.56591C8.68291 14.1497 8.93041 14.5502 9.30841 14.8382C9.68641 15.1262 10.1634 15.2702 10.7394 15.2702C11.4504 15.2702 11.9859 15.0587 12.3459 14.6357C12.7059 14.2037 12.8859 13.6367 12.8859 12.9347C12.8859 12.2327 12.7059 11.6927 12.3459 11.3147C11.9859 10.9277 11.4549 10.7342 10.7529 10.7342C10.2759 10.7342 9.85741 10.8512 9.49741 11.0852C9.14641 11.3102 8.88991 11.6207 8.72791 12.0167H7.56691V6.50872H13.4394V7.58871Z" fill="#1C1C1C" fill-opacity="0.5"/>
</svg>
