<svg width="22" height="19" viewBox="0 0 22 19" fill="none" xmlns="http://www.w3.org/2000/svg">
<path d="M17.7223 2.63763C16.9571 1.53155 15.7979 0.75567 14.4807 0.483752C11.6481 -0.101484 8.53531 -0.0631502 5.13839 0.607955C3.96076 0.840516 2.99014 1.667 2.57306 2.79301C1.44144 5.84901 0.575091 8.93569 0.11508 12.0694C-0.0581909 13.2491 0.325161 14.4425 1.15931 15.2941C2.11614 16.2703 3.35406 17.1888 4.84654 18.0552C5.39497 18.3736 6.0569 18.439 6.65389 18.2254C8.2123 17.6672 9.48498 16.9205 10.4668 15.982C11.0649 15.4111 11.9951 15.3651 12.6294 15.8951C13.2995 16.4553 14.1209 17.0048 15.112 17.543C15.7544 17.8921 16.5303 17.887 17.1692 17.5312C18.9985 16.5126 20.351 15.0298 21.1918 13.0497C21.5531 12.1987 21.6237 11.2506 21.3983 10.3535C20.7358 7.71461 19.4591 5.14878 17.7218 2.63814L17.7223 2.63763Z" fill="#F2F2F2"/>
<path d="M17.7825 2.59505C16.9989 1.4624 15.8315 0.687031 14.4949 0.410513C11.6587 -0.175745 8.50558 -0.133834 5.12348 0.534716C3.91161 0.774433 2.93178 1.60859 2.50295 2.76679C1.27881 6.07274 0.473795 9.11188 0.0408734 12.0585C-0.134953 13.2571 0.263216 14.4858 1.10555 15.3455C2.04704 16.3065 3.29314 17.2392 4.80862 18.1189C5.1567 18.3208 5.54516 18.4235 5.93464 18.4235C6.1856 18.4235 6.43706 18.3806 6.67831 18.2942C8.24286 17.734 9.53448 16.974 10.5179 16.0345C11.0934 15.4846 11.9807 15.4488 12.5818 15.9507C13.2652 16.5216 14.1044 17.0788 15.0766 17.6067C15.7446 17.9696 16.5399 17.965 17.2049 17.5945C19.0613 16.5605 20.426 15.0409 21.2597 13.0772C21.6241 12.2195 21.6987 11.2453 21.4697 10.334C20.8303 7.78858 19.6246 5.25698 17.7825 2.59403V2.59505ZM21.1232 13.0204C20.3023 14.9525 18.9601 16.4485 17.1328 17.4662C16.5123 17.8117 15.7702 17.8163 15.1471 17.4779C14.1836 16.9546 13.3526 16.4031 12.6769 15.8383C12.018 15.2878 11.0459 15.3266 10.4157 15.9287C9.44759 16.8534 8.17336 17.6027 6.62875 18.1557C6.05425 18.3617 5.4184 18.3014 4.88377 17.9911C3.38004 17.1181 2.14465 16.1935 1.21236 15.2423C0.401723 14.4153 0.0188891 13.2331 0.188071 12.0805C0.618948 9.14459 1.42192 6.11465 2.64249 2.81893C3.05343 1.70979 3.99184 0.910391 5.15261 0.680896C6.94614 0.326177 8.67426 0.149328 10.3242 0.149328C11.7676 0.149328 13.1512 0.285287 14.4658 0.556694C15.7651 0.825034 16.8998 1.57945 17.6613 2.68041C19.4932 5.32803 20.6923 7.84378 21.3266 10.3718C21.5474 11.252 21.4759 12.1929 21.1237 13.0209L21.1232 13.0204Z" fill="black"/>
<path d="M11.1011 10.5018C11.0607 10.5095 11.0347 10.5483 11.0424 10.5887C11.4513 12.7329 11.4589 13.7418 11.2759 15.5098C11.2718 15.5507 11.3015 15.587 11.3419 15.5911C11.3444 15.5911 11.347 15.5911 11.3495 15.5911C11.3868 15.5911 11.4191 15.563 11.4231 15.5246C11.6082 13.7408 11.6 12.7227 11.1875 10.5606C11.1798 10.5202 11.141 10.4942 11.1006 10.5018H11.1011Z" fill="black"/>
<path d="M12.3478 4.01121C12.1498 3.01221 11.5333 2.51271 10.4983 2.51271C9.69731 2.51271 9.09881 2.82321 8.70281 3.44421C8.30681 4.05621 8.11331 5.06871 8.12231 6.48171C8.32931 6.01371 8.67131 5.64921 9.14831 5.38821C9.63431 5.11821 10.1743 4.98321 10.7683 4.98321C11.6953 4.98321 12.4333 5.27121 12.9823 5.84721C13.5403 6.42321 13.8193 7.21971 13.8193 8.23671C13.8193 8.84871 13.6978 9.39771 13.4548 9.88371C13.2208 10.3697 12.8608 10.7567 12.3748 11.0447C11.8978 11.3327 11.3173 11.4767 10.6333 11.4767C9.70631 11.4767 8.98181 11.2697 8.45981 10.8557C7.93781 10.4417 7.57331 9.87021 7.36631 9.14121C7.15931 8.41221 7.05581 7.51221 7.05581 6.44121C7.05581 3.13821 8.20781 1.48671 10.5118 1.48671C11.3938 1.48671 12.0868 1.72521 12.5908 2.20221C13.0948 2.67921 13.3918 3.28221 13.4818 4.01121H12.3478ZM10.5118 6.02271C10.1248 6.02271 9.76031 6.10371 9.41831 6.26571C9.07631 6.41871 8.79731 6.65721 8.58131 6.98121C8.37431 7.29621 8.27081 7.68321 8.27081 8.14221C8.27081 8.82621 8.46881 9.38421 8.86481 9.81621C9.26081 10.2392 9.82781 10.4507 10.5658 10.4507C11.1958 10.4507 11.6953 10.2572 12.0643 9.87021C12.4423 9.47421 12.6313 8.94321 12.6313 8.27721C12.6313 7.57521 12.4513 7.02621 12.0913 6.63021C11.7313 6.22521 11.2048 6.02271 10.5118 6.02271Z" fill="#1C1C1C" fill-opacity="0.5"/>
</svg>
