<svg width="22" height="20" viewBox="0 0 22 20" fill="none" xmlns="http://www.w3.org/2000/svg">
<path d="M18.4736 2.68384C17.9317 1.31606 16.6634 0.366098 15.1979 0.235207C12.0079 -0.0505807 8.82482 0.0614481 5.64915 0.578152C4.24422 0.806783 3.08677 1.8099 2.66038 3.16796C1.51037 6.83233 0.662711 10.423 0.120857 13.9513C-0.0203219 14.871 0.227195 15.8078 0.803343 16.5388C1.72072 17.702 3.13251 18.6731 4.79751 19.5459C5.20561 19.7597 5.68687 19.7882 6.11498 19.6173C7.9726 18.8771 9.72391 17.9129 11.3615 16.708C11.9856 16.249 12.847 16.3108 13.4043 16.8486C13.8135 17.2436 14.2959 17.6391 14.8435 18.0341C15.2505 18.3273 15.7741 18.409 16.2513 18.2553C17.75 17.7729 19.0703 17.1544 20.1695 16.3691C21.1646 15.658 21.6733 14.4429 21.4738 13.2363C20.8925 9.71536 19.8642 6.19788 18.473 2.68384H18.4736Z" fill="#F2F2F2"/>
<path d="M18.551 2.65344C17.9937 1.24565 16.7117 0.287685 15.2056 0.152794C12.0145 -0.132994 8.79479 -0.0175354 5.63626 0.496311C4.19074 0.731229 3.02016 1.74577 2.58176 3.14328C1.43232 6.80479 0.577247 10.4372 0.0393947 13.9392C-0.104642 14.8777 0.150266 15.8443 0.738989 16.5902C1.57235 17.647 2.88756 18.6375 4.75947 19.6195C5.00296 19.747 5.26988 19.8116 5.53623 19.8116C5.74314 19.8116 5.95005 19.7727 6.1461 19.6944C8.02373 18.9462 9.79503 17.9637 11.4109 16.7748C12.0019 16.3398 12.8164 16.3958 13.3474 16.9085C13.7498 17.2972 14.2373 17.6985 14.7958 18.1014C15.2222 18.4089 15.776 18.4958 16.2779 18.334C17.8297 17.8345 19.1557 17.196 20.2189 16.4364C21.2346 15.7105 21.7598 14.4496 21.5569 13.2224C20.9968 9.83071 19.9857 6.27494 18.551 2.65286V2.65344ZM20.1223 16.3015C19.0729 17.0514 17.7622 17.6824 16.227 18.1763C15.7754 18.3215 15.2765 18.2432 14.8929 17.9665C14.3408 17.5681 13.8595 17.172 13.4629 16.7885C12.8736 16.2198 11.9699 16.1575 11.3131 16.6405C9.70815 17.8213 7.94943 18.7964 6.08495 19.5395C5.68085 19.7007 5.22585 19.6755 4.83661 19.4715C2.98585 18.5009 1.68782 17.5241 0.869324 16.4867C0.30918 15.7762 0.0662655 14.8566 0.203444 13.9632C0.739582 10.4697 1.59351 6.84537 2.74009 3.19186C3.1602 1.85437 4.27992 0.883839 5.66314 0.658638C7.68708 0.329411 9.7356 0.164226 11.7864 0.164226C12.9221 0.164226 14.059 0.215096 15.1913 0.316265C16.6345 0.445441 17.8634 1.36396 18.3972 2.71288C19.8273 6.32352 20.8356 9.86843 21.3935 13.2482C21.5855 14.413 21.0871 15.6111 20.1223 16.2998V16.3015Z" fill="black"/>
<path d="M11.91 11.446C11.8648 11.4529 11.8339 11.4951 11.8408 11.5403C12.0894 13.1533 12.1735 14.7886 12.0906 16.4016C12.0883 16.4473 12.1231 16.4861 12.1689 16.4884C12.1706 16.4884 12.1717 16.4884 12.1734 16.4884C12.2175 16.4884 12.254 16.4541 12.2563 16.4096C12.3398 14.7857 12.2552 13.1384 12.0048 11.5146C11.998 11.4694 11.9551 11.438 11.9105 11.4454L11.91 11.446Z" fill="black"/>
<path d="M13.0984 4.82202L9.34541 13.624H8.10341L11.9104 4.94352H6.69941V3.89052H13.0984V4.82202Z" fill="#1C1C1C" fill-opacity="0.5"/>
</svg>
