<svg width="22" height="20" viewBox="0 0 22 20" fill="none" xmlns="http://www.w3.org/2000/svg">
<path d="M18.474 2.6839C17.9322 1.31609 16.6638 0.366105 15.1983 0.235211C12.0082 -0.0505842 8.82502 0.0614476 5.64927 0.578165C4.2443 0.806801 3.08683 1.80994 2.66042 3.16804C1.51038 6.83251 0.662728 10.4232 0.120861 13.9517C-0.020322 14.8714 0.227173 15.8082 0.803336 16.5393C1.72074 17.7024 3.13256 18.6736 4.7976 19.5464C5.20572 19.7602 5.68699 19.7887 6.11511 19.6178C7.97278 18.8776 9.72413 17.9134 11.3617 16.7084C11.9859 16.2495 12.8473 16.3112 13.4046 16.8491C13.8139 17.244 14.2963 17.6396 14.8439 18.0345C15.2508 18.3278 15.7744 18.4095 16.2517 18.2557C17.7504 17.7733 19.0708 17.1549 20.1699 16.3695C21.1651 15.6584 21.6738 14.4432 21.4743 13.2366C20.893 9.71561 19.8647 6.19804 18.4735 2.6839H18.474Z" fill="#F2F2F2"/>
<path d="M18.5515 2.65351C17.9942 1.24568 16.7121 0.287693 15.206 0.152798C12.0148 -0.132998 8.79501 -0.0175358 5.6364 0.496324C4.19085 0.731248 3.02024 1.74582 2.58183 3.14336C1.43236 6.80497 0.577262 10.4374 0.0393958 13.9396C-0.104645 14.8781 0.15027 15.8447 0.739008 16.5906C1.57239 17.6475 2.88763 18.638 4.75959 19.62C5.00309 19.7475 5.27001 19.8121 5.53638 19.8121C5.74329 19.8121 5.9502 19.7732 6.14626 19.6949C8.02393 18.9467 9.79531 17.9641 11.4112 16.7752C12.0022 16.3402 12.8167 16.3963 13.3477 16.909C13.7501 17.2977 14.2377 17.6989 14.7961 18.1019C15.222 18.4094 15.7764 18.4963 16.2777 18.3345C17.8296 17.8349 19.1557 17.1965 20.2188 16.4368C21.2345 15.7109 21.7598 14.45 21.5569 13.2228C20.9968 9.83097 19.9856 6.2751 18.5509 2.65293L18.5515 2.65351ZM20.1228 16.3019C19.0733 17.0519 17.7627 17.6829 16.2274 18.1768C15.7758 18.3219 15.2769 18.2436 14.8933 17.967C14.3412 17.5686 13.8599 17.1725 13.4632 16.7889C12.8739 16.2202 11.9702 16.1579 11.3134 16.6409C9.7084 17.8218 7.94964 18.7969 6.08511 19.54C5.68099 19.7012 5.22602 19.676 4.83676 19.472C2.98595 18.5014 1.68786 17.5246 0.869346 16.4871C0.309188 15.7766 0.0662672 14.857 0.203449 13.9636C0.739601 10.47 1.59355 6.84555 2.74016 3.19194C3.16028 1.85442 4.28003 0.883862 5.66328 0.658655C7.68728 0.329419 9.73643 0.16423 11.7867 0.16423C12.9225 0.16423 14.0594 0.215102 15.1917 0.316273C16.6349 0.445453 17.8639 1.364 18.3977 2.71295C19.8279 6.32369 20.8361 9.86869 21.394 13.2485C21.5861 14.4134 21.0876 15.6115 20.1228 16.3002V16.3019Z" fill="black"/>
<path d="M11.91 11.4465C11.8648 11.4533 11.8339 11.4956 11.8408 11.5408C12.0894 13.1538 12.1735 14.7891 12.0906 16.4022C12.0883 16.4479 12.1231 16.4868 12.1689 16.4891C12.1706 16.4891 12.1717 16.4891 12.1735 16.4891C12.2175 16.4891 12.2541 16.4548 12.2563 16.4102C12.3398 14.7863 12.2552 13.139 12.0049 11.5151C11.998 11.4699 11.9551 11.4385 11.9105 11.4459L11.91 11.4465Z" fill="black"/>
<path d="M8.42759 7.19744C7.92359 6.99944 7.53659 6.71144 7.26659 6.33344C6.99659 5.95544 6.86159 5.49644 6.86159 4.95644C6.86159 4.47044 6.98309 4.03394 7.22609 3.64694C7.46909 3.25094 7.82909 2.94044 8.30609 2.71544C8.79209 2.48144 9.37709 2.36444 10.0611 2.36444C10.7451 2.36444 11.3256 2.48144 11.8026 2.71544C12.2886 2.94044 12.6531 3.25094 12.8961 3.64694C13.1481 4.03394 13.2741 4.47044 13.2741 4.95644C13.2741 5.47844 13.1346 5.93744 12.8556 6.33344C12.5766 6.72044 12.1941 7.00844 11.7081 7.19744C12.2661 7.36844 12.7071 7.66994 13.0311 8.10194C13.3641 8.52494 13.5306 9.03794 13.5306 9.64094C13.5306 10.2259 13.3866 10.7389 13.0986 11.1799C12.8106 11.6119 12.4011 11.9494 11.8701 12.1924C11.3481 12.4264 10.7451 12.5434 10.0611 12.5434C9.37709 12.5434 8.77409 12.4264 8.25209 12.1924C7.73909 11.9494 7.33859 11.6119 7.05059 11.1799C6.76259 10.7389 6.61859 10.2259 6.61859 9.64094C6.61859 9.03794 6.78059 8.52044 7.10459 8.08844C7.42859 7.65644 7.86959 7.35944 8.42759 7.19744ZM12.0861 5.10494C12.0861 4.55594 11.9061 4.13294 11.5461 3.83594C11.1861 3.53894 10.6911 3.39044 10.0611 3.39044C9.44009 3.39044 8.94959 3.53894 8.58959 3.83594C8.22959 4.13294 8.04959 4.56044 8.04959 5.11844C8.04959 5.62244 8.23409 6.02744 8.60309 6.33344C8.98109 6.63944 9.46709 6.79244 10.0611 6.79244C10.6641 6.79244 11.1501 6.63944 11.5191 6.33344C11.8971 6.01844 12.0861 5.60894 12.0861 5.10494ZM10.0611 7.73744C9.39509 7.73744 8.85059 7.89494 8.42759 8.20994C8.00459 8.51594 7.79309 8.97944 7.79309 9.60044C7.79309 10.1764 7.99559 10.6399 8.40059 10.9909C8.81459 11.3419 9.36809 11.5174 10.0611 11.5174C10.7541 11.5174 11.3031 11.3419 11.7081 10.9909C12.1131 10.6399 12.3156 10.1764 12.3156 9.60044C12.3156 8.99744 12.1086 8.53844 11.6946 8.22344C11.2806 7.89944 10.7361 7.73744 10.0611 7.73744Z" fill="#1C1C1C" fill-opacity="0.5"/>
</svg>
