<svg width="22" height="28" viewBox="0 0 22 28" fill="none" xmlns="http://www.w3.org/2000/svg">
<path d="M18.4997 2.44329C18.3553 2.37966 18.2109 2.31359 18.0706 2.24017C13.0898 -0.373426 8.59999 -0.667904 4.71059 1.88288C4.30925 2.14636 3.89812 2.39434 3.48863 2.64477C0.145772 4.68083 -0.0736575 11.2385 0.206953 17.7953C0.416596 20.1732 0.804874 22.2573 1.42156 23.9663C2.08067 25.7927 3.89404 26.9657 5.82487 26.752C5.92439 26.7414 6.02392 26.7275 6.12344 26.7112C6.62919 26.6305 7.14635 26.681 7.62355 26.867C9.73874 27.6934 11.8988 27.8149 14.0996 27.3124C14.6413 27.1884 15.2049 27.2374 15.7278 27.4266C16.3135 27.6387 16.9702 27.6721 17.7076 27.5008C18.4442 27.3304 19.0356 26.7838 19.273 26.066C19.8905 24.2012 20.3277 22.29 20.5814 20.3314C20.6353 19.9178 20.6964 19.5051 20.7715 19.0956C22.0807 11.931 21.7039 3.85286 18.4997 2.44247V2.44329Z" fill="#F2F2F2"/>
<path d="M18.5476 2.3349C18.4203 2.27862 18.2702 2.21091 18.1258 2.13586C15.5873 0.803778 13.185 0.0875681 10.9858 0.00762663C8.70417 -0.0755777 6.57104 0.522352 4.64592 1.7851C4.27395 2.029 3.8873 2.26475 3.51288 2.49234L3.42722 2.54454C1.8651 3.49568 0.865839 5.44609 0.372323 8.50671C-0.104878 11.4645 -0.0298287 15.0276 0.0892677 17.806C0.307067 20.2785 0.718192 22.3643 1.31041 24.0072C1.99807 25.9119 3.85956 27.0898 5.83771 26.8704C5.93804 26.859 6.04082 26.8451 6.14197 26.8288C6.63222 26.7505 7.12981 26.8019 7.58009 26.9781C9.66509 27.793 11.8676 27.9439 14.1255 27.4292C14.6296 27.3141 15.1696 27.3525 15.6868 27.5393C16.0368 27.6657 16.4095 27.7294 16.8011 27.7294C17.1013 27.7294 17.4129 27.6918 17.7335 27.6176C18.5019 27.439 19.1349 26.8598 19.3845 26.1044C20.0037 24.2356 20.445 22.2982 20.6978 20.3478C20.7557 19.8984 20.8177 19.4962 20.8871 19.1177C22.211 11.8724 21.8325 3.78119 18.5468 2.3349H18.5476ZM20.6554 19.0753C20.5853 19.4579 20.5233 19.8641 20.4645 20.3176C20.2141 22.2534 19.7752 24.1752 19.1618 26.0302C18.9375 26.7073 18.3706 27.2277 17.6821 27.3867C16.9871 27.5483 16.3435 27.5246 15.7692 27.3166C15.4209 27.1902 15.0636 27.1273 14.7104 27.1273C14.495 27.1273 14.2821 27.151 14.0749 27.1983C11.8643 27.7024 9.70833 27.5548 7.6682 26.7578C7.17794 26.5669 6.63794 26.5107 6.10608 26.5955C6.0082 26.611 5.90949 26.6249 5.81323 26.6355C3.9444 26.8418 2.18487 25.7292 1.53474 23.9272C0.949043 22.3039 0.542806 20.2377 0.326638 17.7913C0.0566314 11.4874 0.229568 4.76985 3.55122 2.74685L3.63687 2.69464C4.01292 2.46623 4.40121 2.22967 4.77644 1.98332C8.4774 -0.443471 12.9321 -0.321927 18.0165 2.34632C18.1666 2.42545 18.3216 2.49478 18.4529 2.5527C19.9 3.18979 20.8545 5.29029 21.2117 8.6258C21.5299 11.5951 21.3276 15.4045 20.6562 19.0761L20.6554 19.0753Z" fill="black"/>
<path d="M6.40845 18.3248C6.41416 18.2596 6.36603 18.2025 6.30077 18.1967C6.23633 18.191 6.17841 18.2392 6.1727 18.3044C5.94511 20.8552 5.98101 23.5993 6.28201 26.6926C6.28772 26.7537 6.33911 26.7994 6.39947 26.7994C6.40355 26.7994 6.40682 26.7994 6.4109 26.7994C6.47616 26.7929 6.52348 26.735 6.51695 26.6705C6.21676 23.592 6.18086 20.8634 6.40764 18.3265L6.40845 18.3248Z" fill="black"/>
<path d="M15.1633 18.1977C15.098 18.2059 15.0524 18.2646 15.0597 18.329C15.364 20.8684 15.2318 23.7789 14.6559 27.227C14.6453 27.2915 14.6885 27.3526 14.753 27.3632C14.7595 27.364 14.766 27.3649 14.7726 27.3649C14.8297 27.3649 14.8794 27.3241 14.8892 27.2662C15.4692 23.7961 15.6013 20.8635 15.2946 18.3013C15.2865 18.236 15.2277 18.1895 15.1633 18.1977Z" fill="black"/>
<path d="M7.75909 8.8727V7.7522H10.2971V17.5127H9.05509V8.8727H7.75909Z" fill="#1C1C1C" fill-opacity="0.5"/>
</svg>
