<svg width="22" height="29" viewBox="0 0 22 29" fill="none" xmlns="http://www.w3.org/2000/svg">
<path d="M16.2455 2.83326C12.6401 -0.932463 9.05498 -0.858087 5.4938 3.63103C4.35779 5.06276 3.46085 6.6707 2.81184 8.37957C1.30484 12.3472 0.343272 16.4272 0.137853 20.6631C0.073217 21.9841 0.35831 23.3052 1.0091 24.4563C1.98927 26.1908 3.49982 27.0886 5.47609 27.2498C6.25792 27.3135 7.03354 27.4508 7.78084 27.6872C10.175 28.4451 12.7233 28.4788 15.3813 27.9962C18.8699 27.5437 21.0003 26.2191 21.1986 23.6549C21.2358 23.1724 21.2721 22.6907 21.3217 22.2099C21.7502 18.0475 21.2553 13.7559 19.9679 9.35354C19.2551 6.91684 17.9996 4.66697 16.2438 2.83326H16.2455Z" fill="#F2F2F2"/>
<path d="M16.3372 2.74478C14.5177 0.843772 12.6928 -0.0788424 10.9131 0.00527316C9.04752 0.092045 7.19077 1.2856 5.39247 3.55229C4.26621 4.97252 3.35776 6.58134 2.69103 8.33537C1.0831 12.5695 0.205658 16.6008 0.00909342 20.6578C-0.058199 22.0382 0.249024 23.3743 0.896271 24.521C1.8729 26.2502 3.41001 27.2118 5.46508 27.3791C6.27967 27.4455 7.04556 27.5907 7.74239 27.8112C9.08559 28.2362 10.4978 28.4478 12.0075 28.4478C13.0851 28.4478 14.2122 28.3398 15.3987 28.1246C17.2111 27.89 18.6243 27.4181 19.5992 26.723C20.6466 25.9757 21.2283 24.9477 21.3275 23.6656L21.3346 23.5753C21.3691 23.1317 21.4045 22.6731 21.4506 22.2242C21.8676 18.1698 21.4107 13.8277 20.0923 9.31819C19.3618 6.82129 18.0638 4.5484 16.3381 2.74567L16.3372 2.74478ZM21.1947 22.1967C21.1477 22.6492 21.1123 23.1096 21.0778 23.555L21.0707 23.6453C20.8874 26.0138 19.021 27.3951 15.3579 27.8705C12.5458 28.3814 10.0799 28.2814 7.81855 27.5659C7.10401 27.3402 6.31863 27.1905 5.48544 27.1223C3.52068 26.9621 2.05175 26.0439 1.1194 24.3935C0.49606 23.2893 0.200336 22.0019 0.264972 20.6694C0.460651 16.6389 1.33281 12.6341 2.931 8.42568C3.5871 6.69644 4.48314 5.11064 5.59346 3.71167C7.34307 1.50607 9.13694 0.345276 10.9246 0.262046C10.9937 0.258505 11.0627 0.257618 11.1327 0.257618C12.7698 0.257618 14.4575 1.15367 16.1513 2.92364C17.8486 4.69715 19.1263 6.93285 19.8444 9.39079C21.1531 13.8675 21.6073 18.1769 21.1938 22.1976L21.1947 22.1967Z" fill="black"/>
<path d="M6.46533 16.9788C6.39538 16.9682 6.32985 17.0169 6.31922 17.0868C5.81807 20.5046 5.81807 23.9702 6.31922 27.3879C6.32896 27.4516 6.38387 27.4977 6.44585 27.4977C6.45205 27.4977 6.45825 27.4977 6.46444 27.4959C6.53439 27.4853 6.58309 27.4207 6.57246 27.3498C6.07485 23.9569 6.07485 20.5161 6.57246 17.1231C6.58309 17.0532 6.53439 16.9877 6.46444 16.9771L6.46533 16.9788Z" fill="black"/>
<path d="M15.7354 18.0608C15.6654 18.0731 15.6185 18.1396 15.6309 18.2095C16.233 21.6326 16.3136 24.7971 15.8779 27.8854C15.8682 27.9554 15.9169 28.0209 15.9868 28.0307C15.993 28.0307 15.9992 28.0315 16.0045 28.0315C16.0674 28.0315 16.1223 27.9855 16.1311 27.9209C16.5703 24.8059 16.4897 21.6149 15.8832 18.1643C15.8708 18.0944 15.8044 18.0484 15.7345 18.0599L15.7354 18.0608Z" fill="black"/>
<path d="M7.55373 16.8973C8.69673 15.9793 9.59223 15.2278 10.2402 14.6428C10.8882 14.0488 11.4327 13.4323 11.8737 12.7933C12.3237 12.1453 12.5487 11.5108 12.5487 10.8898C12.5487 10.3048 12.4047 9.84581 12.1167 9.51281C11.8377 9.17081 11.3832 8.99981 10.7532 8.99981C10.1412 8.99981 9.66423 9.19331 9.32223 9.58031C8.98923 9.95831 8.80923 10.4668 8.78223 11.1058H7.59423C7.63023 10.0978 7.93623 9.31931 8.51223 8.77031C9.08823 8.22131 9.83073 7.94681 10.7397 7.94681C11.6667 7.94681 12.4002 8.20331 12.9402 8.71631C13.4892 9.22931 13.7637 9.93581 13.7637 10.8358C13.7637 11.5828 13.5387 12.3118 13.0887 13.0228C12.6477 13.7248 12.1437 14.3458 11.5767 14.8858C11.0097 15.4168 10.2852 16.0378 9.40323 16.7488H14.0472V17.7748H7.55373V16.8973Z" fill="#1C1C1C" fill-opacity="0.5"/>
</svg>
