<svg width="22" height="29" viewBox="0 0 22 29" fill="none" xmlns="http://www.w3.org/2000/svg">
<path d="M19.7147 7.02241C19.0096 4.30857 17.1547 2.02038 14.6091 0.844691C11.612 -0.539642 8.70855 0.0436359 5.88963 2.42015C4.80531 3.33466 3.94943 4.49132 3.38138 5.79113C1.92167 9.13165 0.827457 12.4562 0.1924 15.7602C-0.0109098 16.8178 0.171078 17.9136 0.705623 18.8494C2.34885 21.7254 4.37662 23.8986 6.8704 25.2213C7.25722 25.4269 7.63185 25.6561 7.98288 25.9188C9.59793 27.1272 11.2617 28.1369 13.0055 28.8169C13.3124 28.9365 13.6603 28.8832 13.9147 28.6737C16.5988 26.4648 18.8984 23.9679 20.6178 21.0386C21.2193 20.0137 21.5194 18.8387 21.4889 17.6501C21.4082 14.4786 20.7114 10.8602 19.7147 7.02394V7.02241Z" fill="#F2F2F2"/>
<path d="M19.8206 6.99443C19.0957 4.20368 17.2126 1.9254 14.6541 0.743611C11.6745 -0.632346 8.70175 -0.0970408 5.81735 2.33506C4.73227 3.24957 3.85506 4.42907 3.2794 5.7464C1.76866 9.20266 0.69348 12.5645 0.0827897 15.7383C-0.125089 16.8211 0.0614807 17.945 0.60897 18.9029C2.30702 21.8749 4.39647 24.0329 6.81791 25.3174C7.2291 25.5352 7.58851 25.7606 7.91593 26.0058C9.68861 27.3323 11.3402 28.2848 12.9644 28.9184C13.0855 28.9656 13.2119 28.9884 13.3368 28.9884C13.5698 28.9884 13.799 28.9092 13.9832 28.7569C16.8852 26.3682 19.0865 23.8615 20.7115 21.0921C21.3222 20.0519 21.6291 18.8595 21.5978 17.645C21.5247 14.7651 20.9597 11.3812 19.8198 6.99367L19.8206 6.99443ZM20.5219 20.9809C18.9099 23.7267 16.726 26.2152 13.8439 28.5871C13.6215 28.7699 13.3154 28.8179 13.0451 28.7128C11.4392 28.0869 9.80511 27.1434 8.04843 25.8291C7.71186 25.5771 7.34331 25.3464 6.92146 25.1225C4.53733 23.8577 2.47759 21.7287 0.800859 18.7932C0.280021 17.881 0.101834 16.8112 0.299813 15.7802C0.906696 12.6224 1.97731 9.27653 3.48119 5.83473C4.04315 4.54862 4.8998 3.3973 5.95899 2.50411C8.77182 0.132159 11.6661 -0.392488 14.5604 0.944635C17.0588 2.09825 18.8977 4.32399 19.6059 7.05002C20.7412 11.42 21.3039 14.7887 21.377 17.6511C21.4067 18.8245 21.1113 19.9758 20.5211 20.9809H20.5219Z" fill="black"/>
<path d="M15.2533 9.22852C15.1924 9.23308 15.1467 9.28563 15.1505 9.34655C15.4459 13.6153 15.1284 18.5724 14.1812 24.5011C14.1713 24.5613 14.2124 24.6176 14.2725 24.6275C14.2786 24.6283 14.284 24.629 14.29 24.629C14.3433 24.629 14.3905 24.5902 14.3989 24.5361C15.3492 18.5907 15.6668 13.6176 15.3705 9.33208C15.366 9.27116 15.3134 9.22471 15.2525 9.22928L15.2533 9.22852Z" fill="black"/>
<path d="M6.01703 11.1252C6.08003 10.2972 6.39953 9.64921 6.97553 9.18121C7.55153 8.71321 8.29853 8.47921 9.21653 8.47921C9.82853 8.47921 10.355 8.59171 10.796 8.81671C11.246 9.03271 11.5835 9.32971 11.8085 9.70771C12.0425 10.0857 12.1595 10.5132 12.1595 10.9902C12.1595 11.5482 11.9975 12.0297 11.6735 12.4347C11.3585 12.8397 10.9445 13.1007 10.4315 13.2177V13.2852C11.0165 13.4292 11.48 13.7127 11.822 14.1357C12.164 14.5587 12.335 15.1122 12.335 15.7962C12.335 16.3092 12.218 16.7727 11.984 17.1867C11.75 17.5917 11.399 17.9112 10.931 18.1452C10.463 18.3792 9.90053 18.4962 9.24353 18.4962C8.28953 18.4962 7.50653 18.2487 6.89453 17.7537C6.28253 17.2497 5.94053 16.5387 5.86853 15.6207H7.05653C7.11953 16.1607 7.34003 16.6017 7.71803 16.9437C8.09603 17.2857 8.60003 17.4567 9.23003 17.4567C9.86003 17.4567 10.337 17.2947 10.661 16.9707C10.994 16.6377 11.1605 16.2102 11.1605 15.6882C11.1605 15.0132 10.9355 14.5272 10.4855 14.2302C10.0355 13.9332 9.35603 13.7847 8.44703 13.7847H8.13653V12.7587H8.46053C9.28853 12.7497 9.91403 12.6147 10.337 12.3537C10.76 12.0837 10.9715 11.6697 10.9715 11.1117C10.9715 10.6347 10.814 10.2522 10.499 9.96421C10.193 9.67621 9.75203 9.53221 9.17603 9.53221C8.61803 9.53221 8.16803 9.67621 7.82603 9.96421C7.48403 10.2522 7.28153 10.6392 7.21853 11.1252H6.01703Z" fill="#1C1C1C" fill-opacity="0.5"/>
</svg>
