<svg width="22" height="29" viewBox="0 0 22 29" fill="none" xmlns="http://www.w3.org/2000/svg">
<path d="M16.5423 1.45356C12.621 -0.290327 8.83722 -0.330325 5.18866 1.30317C4.02634 1.82313 3.136 2.81107 2.75042 4.02459C1.05373 9.36664 0.0578031 14.5791 0.117799 19.658C0.122599 20.0859 0.288987 20.4963 0.576969 20.8131C3.51038 24.0433 7.03175 26.4759 11.0859 28.1862C11.9082 28.5334 12.8602 28.4006 13.5505 27.8342C15.2672 26.4255 16.6511 24.8368 17.6391 23.0354C17.911 22.5386 18.335 22.1426 18.8422 21.8906C19.6301 21.4995 20.3445 20.8971 21.006 20.1443C21.3228 19.7836 21.4924 19.3156 21.4828 18.8356C21.3876 13.9423 20.4557 8.96747 18.7742 3.9198C18.4086 2.82227 17.6007 1.92313 16.5431 1.45276L16.5423 1.45356Z" fill="#F2F2F2"/>
<path d="M16.5903 1.34733C12.6682 -0.397359 8.81646 -0.447756 5.14229 1.19694C3.94637 1.7321 3.03443 2.74964 2.64086 3.98876C0.808975 9.75558 -0.0541678 14.8816 0.00262849 19.6589C0.00822812 20.1117 0.181816 20.5493 0.492196 20.8909C3.37601 24.0658 6.92538 26.5561 11.0419 28.2928C11.3619 28.428 11.6979 28.4936 12.0314 28.4936C12.6034 28.4936 13.1674 28.2992 13.6249 27.9232C15.3944 26.4713 16.7791 24.8458 17.7415 23.0899C17.9991 22.6195 18.3982 22.2404 18.8942 21.9932C19.659 21.6132 20.3789 21.0324 21.0941 20.2197C21.43 19.8373 21.6092 19.3446 21.5996 18.8326C21.5068 14.0401 20.5933 9.01003 18.8854 3.88236C18.5086 2.75124 17.6727 1.8273 16.5919 1.34653L16.5903 1.34733ZM20.9189 20.0685C20.2237 20.8589 19.5278 21.4212 18.7902 21.7876C18.251 22.0556 17.8183 22.4676 17.5375 22.9803C16.5896 24.7098 15.2232 26.3129 13.477 27.7456C12.8194 28.2848 11.9203 28.4136 11.1315 28.0808C7.04617 26.3577 3.5248 23.8867 0.663386 20.7365C0.391404 20.4373 0.239415 20.0541 0.234615 19.6581C0.177819 14.9056 1.03776 9.80438 2.86164 4.06075C3.23522 2.88483 4.10077 1.91849 5.23669 1.41052C8.84846 -0.20617 12.6362 -0.155773 16.496 1.56091C17.5175 2.01529 18.3078 2.88883 18.6638 3.95836C20.3645 9.06363 21.274 14.0705 21.3668 18.8398C21.3756 19.2942 21.2165 19.7309 20.9189 20.0693V20.0685Z" fill="black"/>
<path d="M6.80887 19.2105C6.74647 19.1961 6.68408 19.2353 6.66968 19.2977C6.17451 21.4792 5.80014 23.4766 5.55776 25.2349C5.54896 25.2981 5.59296 25.3565 5.65695 25.3653C5.66255 25.3653 5.66735 25.3661 5.67295 25.3661C5.72974 25.3661 5.77935 25.3237 5.78734 25.2661C6.02813 23.5142 6.4017 21.5232 6.89527 19.3489C6.90967 19.2865 6.87048 19.2241 6.80808 19.2097L6.80887 19.2105Z" fill="black"/>
<path d="M17.3069 16.1736C17.2445 16.1888 17.2069 16.252 17.2221 16.3136C17.7333 18.3895 17.9813 20.5805 17.9221 22.4828C17.9205 22.5468 17.9701 22.6004 18.0341 22.602C18.0357 22.602 18.0365 22.602 18.0381 22.602C18.1005 22.602 18.1517 22.5524 18.1541 22.49C18.2141 20.5661 17.9629 18.3535 17.4469 16.2576C17.4317 16.1952 17.3685 16.1576 17.3069 16.1728V16.1736Z" fill="black"/>
<path d="M6.27242 15.3646V14.4331L11.0109 7.87209H12.4824V14.2981H13.8324V15.3646H12.4824V17.5381H11.2674V15.3646H6.27242ZM11.3214 9.15459L7.68992 14.2981H11.3214V9.15459Z" fill="#1C1C1C" fill-opacity="0.5"/>
</svg>
