<svg width="22" height="29" viewBox="0 0 22 29" fill="none" xmlns="http://www.w3.org/2000/svg">
<path d="M17.8981 2.49615C13.308 -0.56528 8.76973 -0.703942 4.28742 2.29818C3.25163 2.99149 2.49233 4.02979 2.13398 5.22346C0.934465 9.21961 0.178497 13.118 0.121695 16.8627C0.120025 16.9622 0.121702 17.0624 0.128384 17.1618C0.313825 19.9902 1.5008 21.5948 3.34936 22.3909C3.96498 22.6565 4.5188 23.0499 4.97154 23.5444C6.72487 25.459 8.8875 26.9968 11.3993 28.213C11.8412 28.4269 12.3491 28.4644 12.8152 28.3116C14.0673 27.9006 15.185 27.3201 16.1573 26.5583C16.2959 26.4497 16.4271 26.3327 16.5507 26.2083C18.5788 24.1542 20.1417 22.0877 21.1266 20.006C21.368 19.4965 21.4874 18.9377 21.4765 18.3738C21.3947 14.0243 20.7799 9.59049 19.6948 5.08313C19.44 4.02645 18.8027 3.09925 17.8981 2.49615Z" fill="#F2F2F2"/>
<path d="M17.9649 2.39492C15.6469 0.848755 13.3222 0.0443443 11.0543 0.00174317C8.75804 -0.0408579 6.45842 0.697564 4.21977 2.19696C3.16644 2.90196 2.38459 3.96448 2.01788 5.18822C0.713954 9.53353 0.0540526 13.3518 0.000592372 16.8601C-0.00107826 16.9678 0.000589516 17.0714 0.00810736 17.1692C0.185194 19.8789 1.26276 21.6231 3.3026 22.5018C3.89901 22.7591 4.4453 23.1475 4.88384 23.6261C6.5929 25.4922 8.76806 27.0727 11.3484 28.3223C11.629 28.4576 11.9297 28.5269 12.2313 28.5269C12.441 28.5269 12.6515 28.4935 12.8544 28.4267C14.1275 28.0091 15.2643 27.4126 16.2333 26.6533C16.3761 26.5414 16.5123 26.4203 16.6384 26.2925C18.7401 24.1641 20.2879 22.0666 21.2377 20.0568C21.4849 19.5339 21.6102 18.9509 21.5993 18.3703C21.5192 14.1219 20.9186 9.64129 19.8143 5.05374C19.5503 3.95697 18.8938 3.01222 17.9666 2.39409L17.9649 2.39492ZM21.0171 19.9541C20.0782 21.938 18.5471 24.0137 16.4647 26.1229C16.346 26.2424 16.2183 26.3568 16.0829 26.4629C15.1357 27.2046 14.0239 27.7885 12.7776 28.197C12.3407 28.3398 11.8704 28.3073 11.4519 28.1051C8.89921 26.8688 6.74827 25.3076 5.0601 23.4641C4.599 22.9604 4.02348 22.5511 3.39615 22.2805C1.4482 21.441 0.418247 19.7645 0.247843 17.1541C0.241995 17.0631 0.239493 16.9653 0.241164 16.8643C0.294624 13.3785 0.951185 9.58198 2.24843 5.25839C2.59926 4.08811 3.34687 3.0732 4.35342 2.3991C8.71628 -0.522834 13.2504 -0.456845 17.8296 2.59707C18.7058 3.18179 19.3265 4.07474 19.5762 5.11221C20.6763 9.68305 21.2752 14.1461 21.3546 18.377C21.3646 18.92 21.2477 19.4663 21.0163 19.9558L21.0171 19.9541Z" fill="black"/>
<path d="M5.05007 17.1066C5.06678 17.0932 5.08015 17.0748 5.0885 17.0531C5.11189 16.9905 5.07932 16.9203 5.01667 16.8977C4.96571 16.8794 4.91058 16.8927 4.87215 16.9337C4.67084 17.1467 4.57478 19.8456 4.5706 19.9608C4.54053 20.8279 4.4971 22.9062 4.73934 23.47C4.7953 23.6003 4.87299 23.6663 4.97072 23.6663C5.03755 23.6663 5.09184 23.612 5.09184 23.5452C5.09184 23.4842 5.04757 23.4341 4.9891 23.4257C4.89471 23.323 4.74101 22.5495 4.80282 20.2824C4.84877 18.6018 4.97573 17.3204 5.04924 17.1074L5.05007 17.1066Z" fill="black"/>
<path d="M17.8831 20.0643C17.8171 20.076 17.7736 20.1395 17.7853 20.2047C18.0217 21.517 17.919 23.1007 17.7837 24.7446C17.7778 24.8114 17.8279 24.8699 17.8948 24.8749C17.8981 24.8749 17.9014 24.8749 17.9048 24.8749C17.9674 24.8749 18.0201 24.8273 18.0251 24.7638C18.1621 23.1032 18.2648 21.5019 18.0234 20.1604C18.0117 20.0944 17.9482 20.0501 17.8831 20.0627V20.0643Z" fill="black"/>
<path d="M13.1015 7.50522H8.36302V10.5832C8.57002 10.2952 8.87602 10.0612 9.28102 9.88122C9.68602 9.69222 10.1225 9.59772 10.5905 9.59772C11.3375 9.59772 11.945 9.75522 12.413 10.0702C12.881 10.3762 13.214 10.7767 13.412 11.2717C13.619 11.7577 13.7225 12.2752 13.7225 12.8242C13.7225 13.4722 13.601 14.0527 13.358 14.5657C13.115 15.0787 12.7415 15.4837 12.2375 15.7807C11.7425 16.0777 11.126 16.2262 10.388 16.2262C9.44302 16.2262 8.67802 15.9832 8.09302 15.4972C7.50802 15.0112 7.15252 14.3632 7.02652 13.5532H8.22802C8.34502 14.0662 8.59252 14.4667 8.97052 14.7547C9.34852 15.0427 9.82552 15.1867 10.4015 15.1867C11.1125 15.1867 11.648 14.9752 12.008 14.5522C12.368 14.1202 12.548 13.5532 12.548 12.8512C12.548 12.1492 12.368 11.6092 12.008 11.2312C11.648 10.8442 11.117 10.6507 10.415 10.6507C9.93802 10.6507 9.51952 10.7677 9.15952 11.0017C8.80852 11.2267 8.55202 11.5372 8.39002 11.9332H7.22902V6.42522H13.1015V7.50522Z" fill="#1C1C1C" fill-opacity="0.5"/>
</svg>
