<svg width="22" height="19" viewBox="0 0 22 19" fill="none" xmlns="http://www.w3.org/2000/svg">
<path d="M19.0283 2.79261C18.6113 1.66664 17.6407 0.840692 16.4631 0.607628C13.0663 -0.0639666 9.95364 -0.101788 7.12109 0.483429C5.80397 0.755849 4.64478 1.5312 3.87965 2.63723C2.1424 5.1483 0.866165 7.71405 0.20326 10.3524C-0.022138 11.2494 0.0483935 12.1975 0.409746 13.0485C1.25103 15.0285 2.60342 16.5112 4.43216 17.5299C5.07104 17.8856 5.8469 17.8907 6.48936 17.5416C7.4804 17.0034 8.30174 16.454 8.9718 15.8938C9.60609 15.3638 10.5368 15.4098 11.1343 15.9807C12.1166 16.9191 13.3888 17.6658 14.9472 18.2239C15.5441 18.4376 16.206 18.3722 16.7544 18.0537C18.2469 17.1879 19.4848 16.269 20.4415 15.2927C21.2762 14.4412 21.659 13.2478 21.4857 12.0682C21.0257 8.93406 20.1594 5.84749 19.0278 2.7921L19.0283 2.79261Z" fill="#F2F2F2"/>
<path d="M19.0964 2.7667C18.6676 1.60853 17.6878 0.774407 16.476 0.534698C13.094 -0.133829 9.94096 -0.175739 7.10483 0.4105C5.76829 0.686497 4.60092 1.46236 3.81739 2.59497C1.97536 5.25732 0.769155 7.78883 0.130272 10.3347C-0.0987041 11.246 -0.0240833 12.2201 0.340336 13.0778C1.17446 15.0409 2.5386 16.561 4.39494 17.5949C5.05989 17.9655 5.85568 17.9701 6.5237 17.6072C7.49531 17.0792 8.33507 16.5221 9.01842 15.9512C9.61948 15.4493 10.5068 15.4851 11.0823 16.035C12.0651 16.9739 13.3572 17.7339 14.9217 18.2946C15.1629 18.381 15.4144 18.4239 15.6654 18.4239C16.0548 18.4239 16.4433 18.3212 16.7913 18.1193C18.3068 17.2397 19.5528 16.3069 20.4943 15.3461C21.3371 14.4864 21.7353 13.2577 21.5589 12.0591C21.1265 9.1126 20.321 6.07356 19.0969 2.76772L19.0964 2.7667ZM20.388 15.2418C19.4557 16.193 18.2204 17.1175 16.7167 17.9905C16.1821 18.3008 15.5463 18.3606 14.9718 18.1551C13.4272 17.6021 12.153 16.8528 11.185 15.9282C10.8523 15.6103 10.4245 15.4493 9.99718 15.4493C9.61538 15.4493 9.23461 15.5781 8.92386 15.8377C8.24766 16.4025 7.4166 16.954 6.45368 17.4774C5.83064 17.8157 5.08852 17.8116 4.46803 17.4656C2.64083 16.448 1.29815 14.9525 0.477823 13.02C0.126182 12.1915 0.0541145 11.2511 0.274912 10.3709C0.909707 7.84301 2.10876 5.32734 3.94006 2.67981C4.70161 1.57889 5.83677 0.824495 7.13549 0.556164C9.9522 -0.0259866 13.0853 0.0159254 16.4479 0.680364C17.6091 0.909851 18.5475 1.70922 18.9579 2.81832C20.1784 6.11394 20.9809 9.14378 21.4122 12.0796C21.5814 13.2326 21.1986 14.4148 20.388 15.2413V15.2418Z" fill="black"/>
<path d="M10.5005 10.5013C10.4601 10.4937 10.4213 10.5202 10.4136 10.5601C10.0011 12.7221 9.99347 13.7402 10.1785 15.524C10.1826 15.5623 10.2148 15.5904 10.2521 15.5904C10.2546 15.5904 10.2572 15.5904 10.2597 15.5904C10.3006 15.5863 10.3303 15.5495 10.3257 15.5091C10.1427 13.7417 10.1504 12.7323 10.5593 10.5882C10.5669 10.5478 10.5404 10.509 10.5005 10.5013Z" fill="black"/>
<path d="M12.1369 3.70506C11.9389 2.70605 11.3224 2.20655 10.2874 2.20655C9.48637 2.20655 8.88787 2.51705 8.49187 3.13805C8.09587 3.75005 7.90237 4.76255 7.91137 6.17555C8.11837 5.70755 8.46037 5.34305 8.93737 5.08205C9.42337 4.81205 9.96337 4.67705 10.5574 4.67705C11.4844 4.67705 12.2224 4.96505 12.7714 5.54105C13.3294 6.11705 13.6084 6.91355 13.6084 7.93055C13.6084 8.54255 13.4869 9.09155 13.2439 9.57755C13.0099 10.0636 12.6499 10.4506 12.1639 10.7386C11.6869 11.0266 11.1064 11.1706 10.4224 11.1706C9.49538 11.1706 8.77087 10.9636 8.24887 10.5496C7.72687 10.1356 7.36237 9.56405 7.15537 8.83505C6.94837 8.10605 6.84488 7.20605 6.84488 6.13505C6.84488 2.83205 7.99688 1.18055 10.3009 1.18055C11.1829 1.18055 11.8759 1.41905 12.3799 1.89605C12.8839 2.37305 13.1809 2.97606 13.2709 3.70506H12.1369ZM10.3009 5.71655C9.91387 5.71655 9.54937 5.79755 9.20737 5.95956C8.86537 6.11255 8.58637 6.35105 8.37037 6.67505C8.16337 6.99005 8.05987 7.37705 8.05987 7.83605C8.05987 8.52005 8.25787 9.07805 8.65388 9.51005C9.04988 9.93305 9.61687 10.1446 10.3549 10.1446C10.9849 10.1446 11.4844 9.95105 11.8534 9.56405C12.2314 9.16805 12.4204 8.63705 12.4204 7.97105C12.4204 7.26905 12.2404 6.72005 11.8804 6.32405C11.5204 5.91905 10.9939 5.71655 10.3009 5.71655Z" fill="#1C1C1C" fill-opacity="0.5"/>
</svg>
