<svg width="22" height="20" viewBox="0 0 22 20" fill="none" xmlns="http://www.w3.org/2000/svg">
<path d="M18.939 3.16799C18.5126 1.80991 17.3551 0.806218 15.9502 0.578157C12.7745 0.0614479 9.59134 -0.050582 6.40134 0.235209C4.93581 0.366672 3.66747 1.31607 3.12561 2.68386C1.73381 6.19851 0.706113 9.71546 0.124815 13.2364C-0.0746672 14.443 0.43404 15.6582 1.42916 16.3692C2.52889 17.1552 3.84866 17.773 5.34735 18.2554C5.82519 18.4092 6.34819 18.3275 6.75515 18.0342C7.30273 17.6393 7.78515 17.2437 8.1944 16.8488C8.75169 16.3104 9.61306 16.2486 10.2372 16.7082C11.8748 17.9131 13.6261 18.8773 15.4838 19.6175C15.9119 19.7879 16.3932 19.7598 16.8013 19.5461C18.4663 18.6733 19.8781 17.7022 20.7955 16.539C21.3716 15.8085 21.6197 14.8711 21.4779 13.9514C20.9361 10.4225 20.0884 6.8324 18.9384 3.16799H18.939Z" fill="#F2F2F2"/>
<path d="M19.0182 3.14331C18.5792 1.74579 17.4092 0.731236 15.9637 0.496316C12.8046 -0.0175356 9.58484 -0.132996 6.39427 0.152795C4.88816 0.287688 3.6061 1.24566 3.04881 2.65346C1.61471 6.27557 0.603012 9.83138 0.0428624 13.2231C-0.159477 14.4498 0.365806 15.7112 1.38093 16.4371C2.44408 17.1968 3.77014 17.8358 5.32199 18.3348C5.82383 18.4965 6.3777 18.4091 6.8041 18.1022C7.36253 17.6992 7.85009 17.2979 8.25248 16.9093C8.78348 16.3966 9.59741 16.3405 10.189 16.7755C11.8049 17.9644 13.5768 18.947 15.4538 19.6952C15.6499 19.7735 15.8568 19.8123 16.0637 19.8123C16.3306 19.8123 16.597 19.7477 16.8405 19.6203C18.7124 18.6383 20.0276 17.6478 20.861 16.5909C21.4497 15.8444 21.7046 14.8784 21.5606 13.9399C21.0227 10.4378 20.1677 6.80543 19.0182 3.14388V3.14331ZM20.7312 16.4874C19.9127 17.5254 18.6147 18.5017 16.7639 19.4722C16.3746 19.6763 15.9191 19.7014 15.5156 19.5403C13.6511 18.7972 11.8923 17.8215 10.2873 16.6412C9.9918 16.424 9.646 16.3165 9.30133 16.3165C8.88065 16.3165 8.46111 16.476 8.1376 16.7892C7.74092 17.1722 7.25965 17.5689 6.7075 17.9673C6.32397 18.2439 5.82498 18.3222 5.37343 18.177C3.83816 17.6826 2.52752 17.0522 1.4781 16.3022C0.513844 15.6129 0.0148547 14.4149 0.206906 13.2506C0.765341 9.87082 1.77304 6.32587 3.20314 2.71519C3.73756 1.36626 4.96589 0.447731 6.40913 0.318553C9.58655 0.0339058 12.792 0.149366 15.9374 0.660359C17.3206 0.885562 18.4409 1.85611 18.8605 3.19361C20.007 6.84715 20.861 10.471 21.3971 13.9651C21.5343 14.8584 21.2914 15.7781 20.7312 16.4886V16.4874Z" fill="black"/>
<path d="M9.68942 11.4463C9.64427 11.4394 9.60197 11.4703 9.59511 11.5154C9.34476 13.1393 9.26017 14.7866 9.34362 16.4104C9.3459 16.4545 9.38248 16.4893 9.4265 16.4893C9.42821 16.4893 9.42935 16.4893 9.43107 16.4893C9.47679 16.487 9.51166 16.4482 9.50938 16.4024C9.4265 14.7894 9.51052 13.1541 9.75916 11.5411C9.76602 11.496 9.73515 11.4537 9.68999 11.4468L9.68942 11.4463Z" fill="black"/>
<path d="M13.1492 3.90406L9.39619 12.7061H8.15419L11.9612 4.02556H6.75019V2.97256H13.1492V3.90406Z" fill="#1C1C1C" fill-opacity="0.5"/>
</svg>
