<svg width="22" height="20" viewBox="0 0 22 20" fill="none" xmlns="http://www.w3.org/2000/svg">
<path d="M18.939 3.16799C18.5126 1.80991 17.3551 0.806218 15.9502 0.578157C12.7745 0.0614479 9.59134 -0.050582 6.40135 0.235209C4.93581 0.366672 3.66747 1.31607 3.12562 2.68386C1.73382 6.19851 0.706113 9.71545 0.124815 13.2364C-0.0746672 14.443 0.43404 15.6582 1.42916 16.3692C2.52888 17.1552 3.84867 17.773 5.34735 18.2554C5.82519 18.4092 6.34819 18.3275 6.75516 18.0342C7.30273 17.6393 7.78514 17.2437 8.1944 16.8488C8.75169 16.3104 9.61306 16.2486 10.2372 16.7082C11.8748 17.9131 13.6261 18.8773 15.4838 19.6175C15.9119 19.7879 16.3932 19.7598 16.8013 19.5461C18.4663 18.6733 19.8781 17.7022 20.7955 16.539C21.3716 15.8085 21.6197 14.8711 21.4779 13.9514C20.9361 10.4225 20.0884 6.8324 18.9384 3.16799H18.939Z" fill="#F2F2F2"/>
<path d="M19.0182 3.14331C18.5798 1.74579 17.4092 0.731236 15.9637 0.496316C12.8046 -0.0175356 9.58484 -0.132996 6.39427 0.152795C4.88815 0.287688 3.6061 1.24566 3.04881 2.65346C1.61414 6.27557 0.603012 9.83138 0.0428624 13.2231C-0.159477 14.4498 0.365806 15.7112 1.38093 16.4371C2.44407 17.1968 3.77014 17.8358 5.32199 18.3348C5.82383 18.4965 6.3777 18.4091 6.8041 18.1022C7.36253 17.6992 7.85009 17.2979 8.25248 16.9093C8.78348 16.3966 9.59741 16.3405 10.189 16.7755C11.8049 17.9644 13.5768 18.947 15.4538 19.6952C15.6499 19.7735 15.8568 19.8123 16.0637 19.8123C16.3306 19.8123 16.597 19.7477 16.8405 19.6203C18.7124 18.6383 20.0276 17.6477 20.861 16.5909C21.4497 15.8444 21.7046 14.8784 21.5606 13.9399C21.0227 10.4378 20.1677 6.80543 19.0182 3.14388V3.14331ZM20.7312 16.4874C19.9127 17.5254 18.6147 18.5017 16.7639 19.4722C16.3747 19.6763 15.9191 19.7014 15.5156 19.5403C13.6511 18.7972 11.8923 17.8215 10.2873 16.6412C9.9918 16.424 9.646 16.3165 9.30133 16.3165C8.88065 16.3165 8.46111 16.476 8.13759 16.7892C7.74092 17.1728 7.25964 17.5689 6.7075 17.9673C6.32397 18.2439 5.82498 18.3222 5.37343 18.177C3.83816 17.6826 2.52753 17.0522 1.4781 16.3022C0.513845 15.6129 0.014855 14.4149 0.206906 13.2506C0.765341 9.87082 1.77304 6.32587 3.20313 2.71519C3.73756 1.36626 4.96589 0.447731 6.40913 0.318553C9.58655 0.0339058 12.792 0.149366 15.9374 0.660359C17.3206 0.885562 18.4409 1.85611 18.8605 3.19361C20.007 6.84715 20.861 10.4715 21.3971 13.9651C21.5343 14.8584 21.2914 15.7781 20.7312 16.4886V16.4874Z" fill="black"/>
<path d="M9.68942 11.4463C9.64427 11.4394 9.60197 11.4703 9.59511 11.5154C9.34476 13.1393 9.26017 14.7866 9.34362 16.4104C9.3459 16.4545 9.38248 16.4893 9.4265 16.4893C9.42821 16.4893 9.42935 16.4893 9.43107 16.4893C9.47679 16.487 9.51166 16.4482 9.50937 16.4024C9.4265 14.7894 9.51052 13.1541 9.75916 11.5411C9.76601 11.496 9.73515 11.4537 9.68999 11.4468L9.68942 11.4463Z" fill="black"/>
<path d="M8.01939 7.63005C7.51539 7.43205 7.12839 7.14405 6.85839 6.76605C6.58839 6.38805 6.45339 5.92905 6.45339 5.38905C6.45339 4.90305 6.57489 4.46655 6.81789 4.07955C7.06089 3.68355 7.42089 3.37306 7.89789 3.14806C8.38389 2.91406 8.96889 2.79706 9.65289 2.79706C10.3369 2.79706 10.9174 2.91406 11.3944 3.14806C11.8804 3.37306 12.2449 3.68355 12.4879 4.07955C12.7399 4.46655 12.8659 4.90305 12.8659 5.38905C12.8659 5.91105 12.7264 6.37005 12.4474 6.76605C12.1684 7.15305 11.7859 7.44105 11.2999 7.63005C11.8579 7.80105 12.2989 8.10255 12.6229 8.53455C12.9559 8.95755 13.1224 9.47055 13.1224 10.0736C13.1224 10.6586 12.9784 11.1716 12.6904 11.6126C12.4024 12.0446 11.9929 12.3821 11.4619 12.6251C10.9399 12.8591 10.3369 12.9761 9.65289 12.9761C8.96889 12.9761 8.36589 12.8591 7.84389 12.6251C7.33089 12.3821 6.93039 12.0446 6.64239 11.6126C6.35439 11.1716 6.21039 10.6586 6.21039 10.0736C6.21039 9.47055 6.37239 8.95305 6.69639 8.52105C7.02039 8.08905 7.46139 7.79205 8.01939 7.63005ZM11.6779 5.53755C11.6779 4.98856 11.4979 4.56556 11.1379 4.26856C10.7779 3.97155 10.2829 3.82305 9.65289 3.82305C9.03189 3.82305 8.54139 3.97155 8.18139 4.26856C7.82139 4.56556 7.64139 4.99306 7.64139 5.55105C7.64139 6.05505 7.82589 6.46005 8.19489 6.76605C8.57289 7.07205 9.05889 7.22505 9.65289 7.22505C10.2559 7.22505 10.7419 7.07205 11.1109 6.76605C11.4889 6.45105 11.6779 6.04155 11.6779 5.53755ZM9.65289 8.17005C8.98689 8.17005 8.44239 8.32755 8.01939 8.64255C7.59639 8.94855 7.38489 9.41205 7.38489 10.0331C7.38489 10.6091 7.58739 11.0726 7.99239 11.4236C8.40639 11.7746 8.95989 11.9501 9.65289 11.9501C10.3459 11.9501 10.8949 11.7746 11.2999 11.4236C11.7049 11.0726 11.9074 10.6091 11.9074 10.0331C11.9074 9.43005 11.7004 8.97105 11.2864 8.65605C10.8724 8.33205 10.3279 8.17005 9.65289 8.17005Z" fill="#1C1C1C" fill-opacity="0.5"/>
</svg>
